# Blender v2.82 (sub 7) OBJ File: 'marker.blend'
# www.blender.org
o Cube
v 0.060000 0.060000 0.030000
v 0.100000 0.100000 -0.030000
v 0.060000 -0.060000 0.030000
v 0.100000 -0.100000 -0.030000
v -0.060000 0.060000 0.030000
v -0.100000 0.100000 -0.030000
v -0.060000 -0.060000 0.030000
v -0.100000 -0.100000 -0.030000
v 0.100000 -0.100000 0.030000
v -0.100000 -0.100000 0.030000
v 0.100000 0.100000 0.030000
v -0.100000 0.100000 0.030000
v 0.060000 -0.060000 0.036771
v -0.060000 -0.060000 0.036771
v 0.060000 0.060000 0.036771
v -0.060000 0.060000 0.036771
vt 0.476399 0.866611
vt 0.438845 0.666947
vt 0.476399 0.666947
vt 0.333614 0.333614
vt 0.666386 0.666386
vt 0.333614 0.666386
vt 0.333053 0.333053
vt 0.000281 0.000281
vt 0.333053 0.000281
vt 0.333053 0.333614
vt 0.000281 0.666386
vt 0.000281 0.333614
vt 0.666947 0.000281
vt 0.999720 0.333053
vt 0.666947 0.333053
vt 0.666386 0.333053
vt 0.333614 0.000281
vt 0.666386 0.000281
vt 0.868294 0.400168
vt 0.934848 0.666386
vt 0.868294 0.599832
vt 0.801178 0.400168
vt 0.867733 0.666386
vt 0.801178 0.599832
vt 0.734063 0.400168
vt 0.800617 0.666386
vt 0.734063 0.599832
vt 0.666947 0.400168
vt 0.733502 0.666386
vt 0.666947 0.599832
vt 0.199944 0.666947
vt 0.000281 0.866611
vt 0.000281 0.666947
vt 0.676624 0.666947
vt 0.476960 0.704502
vt 0.476960 0.666947
vt 0.200505 0.666947
vt 0.238059 0.866611
vt 0.200505 0.866611
vt 0.438284 0.666947
vt 0.238620 0.704502
vt 0.238620 0.666947
vt 0.438845 0.866611
vt 0.666386 0.333614
vt 0.000281 0.333053
vt 0.333053 0.666386
vt 0.999720 0.000281
vt 0.333614 0.333053
vt 0.934848 0.333614
vt 0.867733 0.333614
vt 0.800617 0.333614
vt 0.733502 0.333614
vt 0.199944 0.866611
vt 0.676624 0.704502
vt 0.238059 0.666947
vt 0.438284 0.704502
vn -1.0000 0.0000 0.0000
vn 0.0000 -1.0000 0.0000
vn 0.0000 0.0000 -1.0000
vn 1.0000 0.0000 0.0000
vn 0.0000 1.0000 0.0000
vn 0.0000 0.0000 1.0000
s off
f 7/1/1 16/2/1 5/3/1
f 9/4/2 8/5/2 4/6/2
f 10/7/1 6/8/1 8/9/1
f 2/10/3 8/11/3 6/12/3
f 11/13/4 4/14/4 2/15/4
f 12/16/5 2/17/5 6/18/5
f 7/19/6 9/20/6 3/21/6
f 3/22/6 11/23/6 1/24/6
f 5/25/6 10/26/6 7/27/6
f 1/28/6 12/29/6 5/30/6
f 16/31/6 13/32/6 15/33/6
f 3/34/2 14/35/2 7/36/2
f 5/37/5 15/38/5 1/39/5
f 1/40/4 13/41/4 3/42/4
f 7/1/1 14/43/1 16/2/1
f 9/4/2 10/44/2 8/5/2
f 10/7/1 12/45/1 6/8/1
f 2/10/3 4/46/3 8/11/3
f 11/13/4 9/47/4 4/14/4
f 12/16/5 11/48/5 2/17/5
f 7/19/6 10/49/6 9/20/6
f 3/22/6 9/50/6 11/23/6
f 5/25/6 12/51/6 10/26/6
f 1/28/6 11/52/6 12/29/6
f 16/31/6 14/53/6 13/32/6
f 3/34/2 13/54/2 14/35/2
f 5/37/5 16/55/5 15/38/5
f 1/40/4 15/56/4 13/41/4
