# Blender v2.93.4 OBJ File: 'Pilot - Floating structure.blend'
# www.blender.org
o Pillar_Cylinder
v -2.250000 -3.897115 4.000000
v -2.250000 -3.897114 -2.000000
v -1.857182 -4.098887 4.000000
v -1.857182 -4.098887 -2.000000
v -1.446478 -4.261186 4.000000
v -1.446478 -4.261186 -2.000000
v -1.021843 -4.382447 4.000000
v -1.021843 -4.382446 -2.000000
v -0.587368 -4.461502 4.000000
v -0.587368 -4.461502 -2.000000
v -0.147236 -4.497591 4.000000
v -0.147236 -4.497590 -2.000000
v 0.294314 -4.490365 4.000000
v 0.294314 -4.490365 -2.000000
v 0.733029 -4.439895 4.000000
v 0.733030 -4.439895 -2.000000
v 1.164685 -4.346666 4.000000
v 1.164686 -4.346666 -2.000000
v 1.585125 -4.211577 4.000000
v 1.585125 -4.211576 -2.000000
v 1.990299 -4.035928 4.000000
v 1.990299 -4.035927 -2.000000
v 2.376305 -3.821410 4.000000
v 2.376305 -3.821410 -2.000000
v 2.739426 -3.570090 4.000000
v 2.739426 -3.570090 -2.000000
v 3.076165 -3.284389 4.000000
v 3.076165 -3.284388 -2.000000
v 3.383279 -2.967056 4.000000
v 3.383279 -2.967056 -2.000000
v 3.657810 -2.621149 4.000000
v 3.657810 -2.621149 -2.000000
v 3.897115 -2.250000 4.000000
v 3.897115 -2.249999 -2.000000
v 4.098887 -1.857181 4.000000
v 4.098887 -1.857181 -2.000000
v 4.261186 -1.446477 4.000000
v 4.261186 -1.446476 -2.000000
v 4.382446 -1.021842 4.000000
v 4.382447 -1.021842 -2.000000
v 4.461502 -0.587367 4.000000
v 4.461502 -0.587366 -2.000000
v 4.497591 -0.147235 4.000000
v 4.497591 -0.147234 -2.000000
v 4.490365 0.294316 4.000000
v 4.490365 0.294316 -2.000000
v 4.439895 0.733031 4.000000
v 4.439895 0.733032 -2.000000
v 4.346665 1.164688 4.000000
v 4.346666 1.164688 -2.000000
v 4.211576 1.585127 4.000000
v 4.211576 1.585128 -2.000000
v 4.035926 1.990301 4.000000
v 4.035926 1.990302 -2.000000
v 3.821408 2.376307 4.000000
v 3.821409 2.376308 -2.000000
v 3.570088 2.739429 4.000000
v 3.570088 2.739429 -2.000000
v 3.284386 3.076167 4.000000
v 3.284386 3.076168 -2.000000
v 2.967053 3.383281 4.000000
v 2.967054 3.383281 -2.000000
v 2.621147 3.657811 4.000000
v 2.621147 3.657812 -2.000000
v 2.249997 3.897116 4.000000
v 2.249997 3.897116 -2.000000
v 1.857178 4.098888 4.000000
v 1.857178 4.098889 -2.000000
v 1.446474 4.261187 4.000000
v 1.446474 4.261187 -2.000000
v 1.021839 4.382447 4.000000
v 1.021839 4.382447 -2.000000
v 0.587363 4.461502 4.000000
v 0.587364 4.461503 -2.000000
v 0.147231 4.497591 4.000000
v 0.147232 4.497591 -2.000000
v -0.294319 4.490365 4.000000
v -0.294318 4.490365 -2.000000
v -0.733034 4.439894 4.000000
v -0.733034 4.439895 -2.000000
v -1.164691 4.346665 4.000000
v -1.164690 4.346665 -2.000000
v -1.585129 4.211575 4.000000
v -1.585129 4.211576 -2.000000
v -1.990302 4.035926 4.000000
v -1.990302 4.035926 -2.000000
v -2.376307 3.821409 4.000000
v -2.376307 3.821409 -2.000000
v -2.739428 3.570089 4.000000
v -2.739428 3.570089 -2.000000
v -3.076166 3.284388 4.000000
v -3.076165 3.284388 -2.000000
v -3.383279 2.967056 4.000000
v -3.383279 2.967057 -2.000000
v -3.657809 2.621150 4.000000
v -3.657809 2.621151 -2.000000
v -3.897113 2.250001 4.000000
v -3.897113 2.250002 -2.000000
v -4.098886 1.857184 4.000000
v -4.098886 1.857185 -2.000000
v -4.261185 1.446481 4.000000
v -4.261184 1.446481 -2.000000
v -4.382445 1.021848 4.000000
v -4.382445 1.021848 -2.000000
v -4.461501 0.587373 4.000000
v -4.461501 0.587374 -2.000000
v -4.497590 0.147242 4.000000
v -4.497590 0.147243 -2.000000
v -4.490366 -0.294307 4.000000
v -4.490366 -0.294306 -2.000000
v -4.439897 -0.733021 4.000000
v -4.439896 -0.733021 -2.000000
v -4.346669 -1.164677 4.000000
v -4.346669 -1.164676 -2.000000
v -4.211580 -1.585116 4.000000
v -4.211580 -1.585115 -2.000000
v -4.035933 -1.990289 4.000000
v -4.035932 -1.990289 -2.000000
v -3.821416 -2.376295 4.000000
v -3.821416 -2.376295 -2.000000
v -3.570098 -2.739417 4.000000
v -3.570098 -2.739416 -2.000000
v -3.284398 -3.076156 4.000000
v -3.284398 -3.076155 -2.000000
v -2.967067 -3.383270 4.000000
v -2.967067 -3.383270 -2.000000
v -2.621162 -3.657801 4.000000
v -2.621162 -3.657801 -2.000000
v -2.250000 -3.897115 4.000000
v -1.857182 -4.098887 4.000000
v -1.857182 -4.098887 -2.000000
v -2.250000 -3.897114 -2.000000
v -1.446478 -4.261186 4.000000
v -1.446478 -4.261186 -2.000000
v -1.021843 -4.382447 4.000000
v -1.021843 -4.382446 -2.000000
v -0.587368 -4.461502 4.000000
v -0.587368 -4.461502 -2.000000
v -0.147236 -4.497591 4.000000
v -0.147236 -4.497590 -2.000000
v 0.294314 -4.490365 4.000000
v 0.294314 -4.490365 -2.000000
v 0.733029 -4.439895 4.000000
v 0.733030 -4.439895 -2.000000
v 1.164685 -4.346666 4.000000
v 1.164686 -4.346666 -2.000000
v 1.585125 -4.211577 4.000000
v 1.585125 -4.211576 -2.000000
v 1.990299 -4.035928 4.000000
v 1.990299 -4.035927 -2.000000
v 2.376305 -3.821410 4.000000
v 2.376305 -3.821410 -2.000000
v 2.739426 -3.570090 4.000000
v 2.739426 -3.570090 -2.000000
v 3.076165 -3.284389 4.000000
v 3.076165 -3.284388 -2.000000
v 3.383279 -2.967056 4.000000
v 3.383279 -2.967056 -2.000000
v 3.657810 -2.621149 4.000000
v 3.657810 -2.621149 -2.000000
v 3.897115 -2.250000 4.000000
v 3.897115 -2.249999 -2.000000
v 4.098887 -1.857181 4.000000
v 4.098887 -1.857181 -2.000000
v 4.261186 -1.446477 4.000000
v 4.261186 -1.446476 -2.000000
v 4.382446 -1.021842 4.000000
v 4.382447 -1.021842 -2.000000
v 4.461502 -0.587367 4.000000
v 4.461502 -0.587366 -2.000000
v 4.497591 -0.147235 4.000000
v 4.497591 -0.147234 -2.000000
v 4.490365 0.294316 4.000000
v 4.490365 0.294316 -2.000000
v 4.439895 0.733031 4.000000
v 4.439895 0.733032 -2.000000
v 4.346665 1.164688 4.000000
v 4.346666 1.164688 -2.000000
v 4.211576 1.585127 4.000000
v 4.211576 1.585128 -2.000000
v 4.035926 1.990301 4.000000
v 4.035926 1.990302 -2.000000
v 3.821408 2.376307 4.000000
v 3.821409 2.376308 -2.000000
v 3.570088 2.739429 4.000000
v 3.570088 2.739429 -2.000000
v 3.284386 3.076167 4.000000
v 3.284386 3.076168 -2.000000
v 2.967053 3.383281 4.000000
v 2.967054 3.383281 -2.000000
v 2.621147 3.657811 4.000000
v 2.621147 3.657812 -2.000000
v 2.249997 3.897116 4.000000
v 2.249997 3.897116 -2.000000
v 1.857178 4.098888 4.000000
v 1.857178 4.098889 -2.000000
v 1.446474 4.261187 4.000000
v 1.446474 4.261187 -2.000000
v 1.021839 4.382447 4.000000
v 1.021839 4.382447 -2.000000
v 0.587363 4.461502 4.000000
v 0.587364 4.461503 -2.000000
v 0.147231 4.497591 4.000000
v 0.147232 4.497591 -2.000000
v -0.294319 4.490365 4.000000
v -0.294318 4.490365 -2.000000
v -0.733034 4.439894 4.000000
v -0.733034 4.439895 -2.000000
v -1.164691 4.346665 4.000000
v -1.164690 4.346665 -2.000000
v -1.585129 4.211575 4.000000
v -1.585129 4.211576 -2.000000
v -1.990302 4.035926 4.000000
v -1.990302 4.035926 -2.000000
v -2.376307 3.821409 4.000000
v -2.376307 3.821409 -2.000000
v -2.739428 3.570089 4.000000
v -2.739428 3.570089 -2.000000
v -3.076166 3.284388 4.000000
v -3.076165 3.284388 -2.000000
v -3.383279 2.967056 4.000000
v -3.383279 2.967057 -2.000000
v -3.657809 2.621150 4.000000
v -3.657809 2.621151 -2.000000
v -3.897113 2.250001 4.000000
v -3.897113 2.250002 -2.000000
v -4.098886 1.857184 4.000000
v -4.098886 1.857185 -2.000000
v -4.261185 1.446481 4.000000
v -4.261184 1.446481 -2.000000
v -4.382445 1.021848 4.000000
v -4.382445 1.021848 -2.000000
v -4.461501 0.587373 4.000000
v -4.461501 0.587374 -2.000000
v -4.497590 0.147242 4.000000
v -4.497590 0.147243 -2.000000
v -4.490366 -0.294307 4.000000
v -4.490366 -0.294306 -2.000000
v -4.439897 -0.733021 4.000000
v -4.439896 -0.733021 -2.000000
v -4.346669 -1.164677 4.000000
v -4.346669 -1.164676 -2.000000
v -4.211580 -1.585116 4.000000
v -4.211580 -1.585115 -2.000000
v -4.035933 -1.990289 4.000000
v -4.035932 -1.990289 -2.000000
v -3.821416 -2.376295 4.000000
v -3.821416 -2.376295 -2.000000
v -3.570098 -2.739417 4.000000
v -3.570098 -2.739416 -2.000000
v -3.284398 -3.076156 4.000000
v -3.284398 -3.076155 -2.000000
v -2.967067 -3.383270 4.000000
v -2.967067 -3.383270 -2.000000
v -2.621162 -3.657801 4.000000
v -2.621162 -3.657801 -2.000000
vt 1.000000 1.000000
vt 0.984375 0.500000
vt 1.000000 0.500000
vt 0.968750 1.000000
vt 0.968750 0.500000
vt 0.953125 1.000000
vt 0.953125 0.500000
vt 0.937500 0.500000
vt 0.937500 1.000000
vt 0.921875 0.500000
vt 0.921875 1.000000
vt 0.906250 0.500000
vt 0.906250 1.000000
vt 0.890625 0.500000
vt 0.890625 1.000000
vt 0.875000 0.500000
vt 0.875000 1.000000
vt 0.859375 0.500000
vt 0.859375 1.000000
vt 0.843750 0.500000
vt 0.843750 1.000000
vt 0.828125 0.500000
vt 0.828125 1.000000
vt 0.812500 0.500000
vt 0.812500 1.000000
vt 0.796875 0.500000
vt 0.796875 1.000000
vt 0.781250 0.500000
vt 0.781250 1.000000
vt 0.765625 0.500000
vt 0.765625 1.000000
vt 0.750000 0.500000
vt 0.750000 1.000000
vt 0.734375 0.500000
vt 0.734375 1.000000
vt 0.718750 0.500000
vt 0.718750 1.000000
vt 0.703125 0.500000
vt 0.703125 1.000000
vt 0.687500 0.500000
vt 0.671875 1.000000
vt 0.671875 0.500000
vt 0.656250 0.500000
vt 0.656250 1.000000
vt 0.640625 0.500000
vt 0.640625 1.000000
vt 0.625000 0.500000
vt 0.625000 1.000000
vt 0.609375 0.500000
vt 0.609375 1.000000
vt 0.593750 0.500000
vt 0.593750 1.000000
vt 0.578125 0.500000
vt 0.578125 1.000000
vt 0.562500 0.500000
vt 0.562500 1.000000
vt 0.546875 0.500000
vt 0.546875 1.000000
vt 0.531250 0.500000
vt 0.531250 1.000000
vt 0.515625 0.500000
vt 0.500000 1.000000
vt 0.500000 0.500000
vt 0.484375 1.000000
vt 0.484375 0.500000
vt 0.468750 1.000000
vt 0.468750 0.500000
vt 0.453125 0.500000
vt 0.453125 1.000000
vt 0.437500 0.500000
vt 0.437500 1.000000
vt 0.421875 0.500000
vt 0.421875 1.000000
vt 0.406250 0.500000
vt 0.406250 1.000000
vt 0.390625 0.500000
vt 0.390625 1.000000
vt 0.375000 0.500000
vt 0.375000 1.000000
vt 0.359375 0.500000
vt 0.359375 1.000000
vt 0.343750 0.500000
vt 0.343750 1.000000
vt 0.328125 0.500000
vt 0.328125 1.000000
vt 0.312500 0.500000
vt 0.312500 1.000000
vt 0.296875 0.500000
vt 0.296875 1.000000
vt 0.281250 0.500000
vt 0.281250 1.000000
vt 0.265625 0.500000
vt 0.265625 1.000000
vt 0.250000 0.500000
vt 0.250000 1.000000
vt 0.234375 0.500000
vt 0.234375 1.000000
vt 0.218750 0.500000
vt 0.218750 1.000000
vt 0.203125 0.500000
vt 0.203125 1.000000
vt 0.187500 0.500000
vt 0.187500 1.000000
vt 0.171875 0.500000
vt 0.171875 1.000000
vt 0.156250 0.500000
vt 0.156250 1.000000
vt 0.140625 0.500000
vt 0.140625 1.000000
vt 0.125000 0.500000
vt 0.125000 1.000000
vt 0.109375 0.500000
vt 0.109375 1.000000
vt 0.093750 0.500000
vt 0.093750 1.000000
vt 0.078125 0.500000
vt 0.078125 1.000000
vt 0.062500 0.500000
vt 0.062500 1.000000
vt 0.046875 0.500000
vt 0.031250 1.000000
vt 0.031250 0.500000
vt 0.383337 0.050447
vt 0.485388 0.203178
vt 0.296822 0.485388
vt 0.015625 0.500000
vt 0.015625 1.000000
vt 0.000000 0.500000
vt 0.773524 0.011156
vt 0.511156 0.226476
vt 0.726475 0.488844
vt 0.984375 1.000000
vt 0.687500 1.000000
vt 0.515625 1.000000
vt 0.046875 1.000000
vt 0.273524 0.488844
vt 0.203178 0.485388
vt 0.250000 0.490000
vt 0.226475 0.488844
vt 0.180331 0.479665
vt 0.158155 0.471731
vt 0.136864 0.461661
vt 0.116663 0.449552
vt 0.097745 0.435522
vt 0.050447 0.383337
vt 0.080294 0.419705
vt 0.064477 0.402254
vt 0.038339 0.363135
vt 0.014611 0.296821
vt 0.028269 0.341844
vt 0.020334 0.319668
vt 0.011156 0.273524
vt 0.010000 0.250000
vt 0.011156 0.226476
vt 0.014612 0.203178
vt 0.020334 0.180332
vt 0.050447 0.116663
vt 0.028269 0.158156
vt 0.038339 0.136865
vt 0.064477 0.097746
vt 0.080294 0.080295
vt 0.097745 0.064478
vt 0.116663 0.050447
vt 0.136865 0.038339
vt 0.158156 0.028269
vt 0.180331 0.020334
vt 0.203178 0.014612
vt 0.226476 0.011156
vt 0.250000 0.010000
vt 0.273524 0.011156
vt 0.296822 0.014611
vt 0.319668 0.020334
vt 0.341844 0.028269
vt 0.363135 0.038339
vt 0.402254 0.064477
vt 0.419706 0.080294
vt 0.435522 0.097746
vt 0.449553 0.116663
vt 0.461661 0.136865
vt 0.471731 0.158156
vt 0.479666 0.180332
vt 0.488844 0.226476
vt 0.485388 0.296822
vt 0.490000 0.250000
vt 0.488844 0.273524
vt 0.479666 0.319668
vt 0.471731 0.341844
vt 0.461661 0.363135
vt 0.449553 0.383337
vt 0.435522 0.402254
vt 0.383337 0.449553
vt 0.419706 0.419706
vt 0.402254 0.435522
vt 0.363135 0.461661
vt 0.341844 0.471731
vt 0.319668 0.479666
vt 0.000000 1.000000
vt 0.750000 0.490000
vt 0.773524 0.488844
vt 0.796822 0.485388
vt 0.819668 0.479666
vt 0.841844 0.471731
vt 0.863135 0.461661
vt 0.883337 0.449553
vt 0.902254 0.435522
vt 0.919706 0.419706
vt 0.935522 0.402254
vt 0.949553 0.383337
vt 0.961661 0.363135
vt 0.971731 0.341844
vt 0.979666 0.319668
vt 0.985388 0.296822
vt 0.988844 0.273524
vt 0.990000 0.250000
vt 0.988844 0.226476
vt 0.985388 0.203178
vt 0.979666 0.180332
vt 0.971731 0.158156
vt 0.935522 0.097746
vt 0.961661 0.136865
vt 0.949553 0.116663
vt 0.919706 0.080294
vt 0.902254 0.064477
vt 0.883337 0.050447
vt 0.863135 0.038339
vt 0.841844 0.028269
vt 0.819668 0.020334
vt 0.796821 0.014611
vt 0.750000 0.010000
vt 0.680331 0.020334
vt 0.726476 0.011156
vt 0.703178 0.014612
vt 0.658156 0.028269
vt 0.636865 0.038339
vt 0.616663 0.050447
vt 0.597745 0.064478
vt 0.580294 0.080295
vt 0.564477 0.097746
vt 0.550447 0.116663
vt 0.538339 0.136865
vt 0.528269 0.158156
vt 0.520334 0.180332
vt 0.514612 0.203178
vt 0.510000 0.250000
vt 0.511156 0.273524
vt 0.514611 0.296821
vt 0.520334 0.319668
vt 0.528269 0.341844
vt 0.538339 0.363135
vt 0.550447 0.383337
vt 0.564477 0.402254
vt 0.580294 0.419705
vt 0.597745 0.435522
vt 0.616663 0.449552
vt 0.636864 0.461661
vt 0.658155 0.471731
vt 0.680331 0.479665
vt 0.703178 0.485388
vn -0.5000 -0.8660 0.0000
vn -0.4127 -0.9109 0.0000
vn -0.3214 -0.9469 0.0000
vn -0.2271 -0.9739 0.0000
vn -0.1305 -0.9914 0.0000
vn -0.0327 -0.9995 0.0000
vn 0.0654 -0.9978 0.0000
vn 0.1629 -0.9866 0.0000
vn 0.2588 -0.9659 0.0000
vn 0.3522 -0.9359 0.0000
vn 0.4423 -0.8968 0.0000
vn 0.5281 -0.8492 0.0000
vn 0.6088 -0.7933 0.0000
vn 0.6836 -0.7299 0.0000
vn 0.7518 -0.6593 0.0000
vn 0.8128 -0.5825 0.0000
vn 0.8660 -0.5000 0.0000
vn 0.9109 -0.4127 0.0000
vn 0.9469 -0.3214 0.0000
vn 0.9739 -0.2271 0.0000
vn 0.9914 -0.1305 0.0000
vn 0.9995 -0.0327 0.0000
vn 0.9978 0.0654 0.0000
vn 0.9866 0.1629 0.0000
vn 0.9659 0.2588 0.0000
vn 0.9359 0.3522 0.0000
vn 0.8968 0.4423 0.0000
vn 0.8492 0.5281 0.0000
vn 0.7933 0.6088 0.0000
vn 0.7299 0.6836 0.0000
vn 0.6593 0.7518 0.0000
vn 0.5825 0.8128 0.0000
vn 0.5000 0.8660 0.0000
vn 0.4127 0.9109 0.0000
vn 0.3214 0.9469 0.0000
vn 0.2271 0.9739 0.0000
vn 0.1305 0.9914 0.0000
vn 0.0327 0.9995 0.0000
vn -0.0654 0.9978 0.0000
vn -0.1629 0.9866 0.0000
vn -0.2588 0.9659 0.0000
vn -0.3522 0.9359 0.0000
vn -0.4423 0.8968 0.0000
vn -0.5281 0.8492 0.0000
vn -0.6088 0.7933 0.0000
vn -0.6836 0.7299 0.0000
vn -0.7518 0.6593 0.0000
vn -0.8128 0.5825 0.0000
vn -0.8660 0.5000 0.0000
vn -0.9109 0.4127 0.0000
vn -0.9469 0.3214 0.0000
vn -0.9739 0.2271 0.0000
vn -0.9914 0.1305 0.0000
vn -0.9995 0.0327 0.0000
vn -0.9978 -0.0654 0.0000
vn -0.9866 -0.1629 0.0000
vn -0.9659 -0.2588 0.0000
vn -0.9359 -0.3522 0.0000
vn -0.8968 -0.4423 0.0000
vn -0.8492 -0.5281 0.0000
vn -0.7933 -0.6088 0.0000
vn -0.7299 -0.6836 0.0000
vn -0.6593 -0.7518 0.0000
vn 0.0000 0.0000 -1.0000
vn -0.5825 -0.8128 0.0000
vn 0.0000 0.0000 1.0000
s 1
f 132/1/1 130/2/2 129/3/1
f 130/2/2 134/4/3 133/5/3
f 133/5/3 136/6/4 135/7/4
f 136/6/4 137/8/5 135/7/4
f 138/9/5 139/10/6 137/8/5
f 140/11/6 141/12/7 139/10/6
f 142/13/7 143/14/8 141/12/7
f 144/15/8 145/16/9 143/14/8
f 146/17/9 147/18/10 145/16/9
f 148/19/10 149/20/11 147/18/10
f 150/21/11 151/22/12 149/20/11
f 152/23/12 153/24/13 151/22/12
f 154/25/13 155/26/14 153/24/13
f 156/27/14 157/28/15 155/26/14
f 158/29/15 159/30/16 157/28/15
f 160/31/16 161/32/17 159/30/16
f 162/33/17 163/34/18 161/32/17
f 164/35/18 165/36/19 163/34/18
f 166/37/19 167/38/20 165/36/19
f 168/39/20 169/40/21 167/38/20
f 169/40/21 172/41/22 171/42/22
f 172/41/22 173/43/23 171/42/22
f 174/44/23 175/45/24 173/43/23
f 176/46/24 177/47/25 175/45/24
f 178/48/25 179/49/26 177/47/25
f 180/50/26 181/51/27 179/49/26
f 182/52/27 183/53/28 181/51/27
f 184/54/28 185/55/29 183/53/28
f 186/56/29 187/57/30 185/55/29
f 188/58/30 189/59/31 187/57/30
f 190/60/31 191/61/32 189/59/31
f 191/61/32 194/62/33 193/63/33
f 193/63/33 196/64/34 195/65/34
f 195/65/34 198/66/35 197/67/35
f 198/66/35 199/68/36 197/67/35
f 200/69/36 201/70/37 199/68/36
f 202/71/37 203/72/38 201/70/37
f 204/73/38 205/74/39 203/72/38
f 206/75/39 207/76/40 205/74/39
f 208/77/40 209/78/41 207/76/40
f 210/79/41 211/80/42 209/78/41
f 212/81/42 213/82/43 211/80/42
f 214/83/43 215/84/44 213/82/43
f 216/85/44 217/86/45 215/84/44
f 218/87/45 219/88/46 217/86/45
f 220/89/46 221/90/47 219/88/46
f 222/91/47 223/92/48 221/90/47
f 224/93/48 225/94/49 223/92/48
f 226/95/49 227/96/50 225/94/49
f 228/97/50 229/98/51 227/96/50
f 230/99/51 231/100/52 229/98/51
f 232/101/52 233/102/53 231/100/52
f 234/103/53 235/104/54 233/102/53
f 236/105/54 237/106/55 235/104/54
f 238/107/55 239/108/56 237/106/55
f 240/109/56 241/110/57 239/108/56
f 242/111/57 243/112/58 241/110/57
f 244/113/58 245/114/59 243/112/58
f 246/115/59 247/116/60 245/114/59
f 248/117/60 249/118/61 247/116/60
f 250/119/61 251/120/62 249/118/61
f 251/120/62 254/121/63 253/122/63
f 54/123/64 38/124/64 6/125/64
f 254/121/63 255/126/65 253/122/63
f 128/127/65 129/128/1 255/126/65
f 63/129/66 95/130/66 127/131/66
f 132/1/1 131/132/2 130/2/2
f 130/2/2 131/132/2 134/4/3
f 133/5/3 134/4/3 136/6/4
f 136/6/4 138/9/5 137/8/5
f 138/9/5 140/11/6 139/10/6
f 140/11/6 142/13/7 141/12/7
f 142/13/7 144/15/8 143/14/8
f 144/15/8 146/17/9 145/16/9
f 146/17/9 148/19/10 147/18/10
f 148/19/10 150/21/11 149/20/11
f 150/21/11 152/23/12 151/22/12
f 152/23/12 154/25/13 153/24/13
f 154/25/13 156/27/14 155/26/14
f 156/27/14 158/29/15 157/28/15
f 158/29/15 160/31/16 159/30/16
f 160/31/16 162/33/17 161/32/17
f 162/33/17 164/35/18 163/34/18
f 164/35/18 166/37/19 165/36/19
f 166/37/19 168/39/20 167/38/20
f 168/39/20 170/133/21 169/40/21
f 169/40/21 170/133/21 172/41/22
f 172/41/22 174/44/23 173/43/23
f 174/44/23 176/46/24 175/45/24
f 176/46/24 178/48/25 177/47/25
f 178/48/25 180/50/26 179/49/26
f 180/50/26 182/52/27 181/51/27
f 182/52/27 184/54/28 183/53/28
f 184/54/28 186/56/29 185/55/29
f 186/56/29 188/58/30 187/57/30
f 188/58/30 190/60/31 189/59/31
f 190/60/31 192/134/32 191/61/32
f 191/61/32 192/134/32 194/62/33
f 193/63/33 194/62/33 196/64/34
f 195/65/34 196/64/34 198/66/35
f 198/66/35 200/69/36 199/68/36
f 200/69/36 202/71/37 201/70/37
f 202/71/37 204/73/38 203/72/38
f 204/73/38 206/75/39 205/74/39
f 206/75/39 208/77/40 207/76/40
f 208/77/40 210/79/41 209/78/41
f 210/79/41 212/81/42 211/80/42
f 212/81/42 214/83/43 213/82/43
f 214/83/43 216/85/44 215/84/44
f 216/85/44 218/87/45 217/86/45
f 218/87/45 220/89/46 219/88/46
f 220/89/46 222/91/47 221/90/47
f 222/91/47 224/93/48 223/92/48
f 224/93/48 226/95/49 225/94/49
f 226/95/49 228/97/50 227/96/50
f 228/97/50 230/99/51 229/98/51
f 230/99/51 232/101/52 231/100/52
f 232/101/52 234/103/53 233/102/53
f 234/103/53 236/105/54 235/104/54
f 236/105/54 238/107/55 237/106/55
f 238/107/55 240/109/56 239/108/56
f 240/109/56 242/111/57 241/110/57
f 242/111/57 244/113/58 243/112/58
f 244/113/58 246/115/59 245/114/59
f 246/115/59 248/117/60 247/116/60
f 248/117/60 250/119/61 249/118/61
f 250/119/61 252/135/62 251/120/62
f 251/120/62 252/135/62 254/121/63
f 6/125/64 4/136/64 126/137/64
f 4/136/64 2/138/64 126/137/64
f 2/138/64 256/139/64 126/137/64
f 126/137/64 124/140/64 122/141/64
f 122/141/64 120/142/64 126/137/64
f 120/142/64 118/143/64 126/137/64
f 118/143/64 116/144/64 110/145/64
f 116/144/64 114/146/64 110/145/64
f 114/146/64 112/147/64 110/145/64
f 110/145/64 108/148/64 102/149/64
f 108/148/64 106/150/64 102/149/64
f 106/150/64 104/151/64 102/149/64
f 102/149/64 100/152/64 98/153/64
f 98/153/64 96/154/64 94/155/64
f 94/155/64 92/156/64 86/157/64
f 92/156/64 90/158/64 86/157/64
f 90/158/64 88/159/64 86/157/64
f 86/157/64 84/160/64 82/161/64
f 82/161/64 80/162/64 86/157/64
f 80/162/64 78/163/64 86/157/64
f 78/163/64 76/164/64 74/165/64
f 74/165/64 72/166/64 78/163/64
f 72/166/64 70/167/64 78/163/64
f 70/167/64 68/168/64 66/169/64
f 66/169/64 64/170/64 62/171/64
f 62/171/64 60/172/64 54/123/64
f 60/172/64 58/173/64 54/123/64
f 58/173/64 56/174/64 54/123/64
f 54/123/64 52/175/64 50/176/64
f 50/176/64 48/177/64 46/178/64
f 46/178/64 44/179/64 42/180/64
f 42/180/64 40/181/64 46/178/64
f 40/181/64 38/124/64 46/178/64
f 38/124/64 36/182/64 30/183/64
f 36/182/64 34/184/64 30/183/64
f 34/184/64 32/185/64 30/183/64
f 30/183/64 28/186/64 26/187/64
f 26/187/64 24/188/64 30/183/64
f 24/188/64 22/189/64 30/183/64
f 22/189/64 20/190/64 14/191/64
f 20/190/64 18/192/64 14/191/64
f 18/192/64 16/193/64 14/191/64
f 14/191/64 12/194/64 6/125/64
f 12/194/64 10/195/64 6/125/64
f 10/195/64 8/196/64 6/125/64
f 102/149/64 98/153/64 86/157/64
f 98/153/64 94/155/64 86/157/64
f 70/167/64 66/169/64 54/123/64
f 66/169/64 62/171/64 54/123/64
f 54/123/64 50/176/64 38/124/64
f 50/176/64 46/178/64 38/124/64
f 6/125/64 126/137/64 118/143/64
f 118/143/64 110/145/64 102/149/64
f 86/157/64 78/163/64 70/167/64
f 38/124/64 30/183/64 6/125/64
f 30/183/64 22/189/64 6/125/64
f 22/189/64 14/191/64 6/125/64
f 6/125/64 118/143/64 102/149/64
f 102/149/64 86/157/64 6/125/64
f 86/157/64 70/167/64 6/125/64
f 70/167/64 54/123/64 6/125/64
f 254/121/63 128/127/65 255/126/65
f 128/127/65 132/197/1 129/128/1
f 127/131/66 1/198/66 3/199/66
f 3/199/66 5/200/66 7/201/66
f 7/201/66 9/202/66 11/203/66
f 11/203/66 13/204/66 15/205/66
f 15/205/66 17/206/66 19/207/66
f 19/207/66 21/208/66 23/209/66
f 23/209/66 25/210/66 27/211/66
f 27/211/66 29/212/66 23/209/66
f 29/212/66 31/213/66 23/209/66
f 31/213/66 33/214/66 35/215/66
f 35/215/66 37/216/66 39/217/66
f 39/217/66 41/218/66 47/219/66
f 41/218/66 43/220/66 47/219/66
f 43/220/66 45/221/66 47/219/66
f 47/219/66 49/222/66 51/223/66
f 51/223/66 53/224/66 55/225/66
f 55/225/66 57/226/66 59/227/66
f 59/227/66 61/228/66 63/129/66
f 63/129/66 65/229/66 71/230/66
f 65/229/66 67/231/66 71/230/66
f 67/231/66 69/232/66 71/230/66
f 71/230/66 73/233/66 75/234/66
f 75/234/66 77/235/66 71/230/66
f 77/235/66 79/236/66 71/230/66
f 79/236/66 81/237/66 83/238/66
f 83/238/66 85/239/66 79/236/66
f 85/239/66 87/240/66 79/236/66
f 87/240/66 89/241/66 91/242/66
f 91/242/66 93/243/66 95/130/66
f 95/130/66 97/244/66 99/245/66
f 99/245/66 101/246/66 103/247/66
f 103/247/66 105/248/66 107/249/66
f 107/249/66 109/250/66 111/251/66
f 111/251/66 113/252/66 115/253/66
f 115/253/66 117/254/66 119/255/66
f 119/255/66 121/256/66 123/257/66
f 123/257/66 125/258/66 119/255/66
f 125/258/66 127/131/66 119/255/66
f 127/131/66 3/199/66 7/201/66
f 7/201/66 11/203/66 127/131/66
f 11/203/66 15/205/66 127/131/66
f 15/205/66 19/207/66 23/209/66
f 31/213/66 35/215/66 39/217/66
f 47/219/66 51/223/66 63/129/66
f 51/223/66 55/225/66 63/129/66
f 55/225/66 59/227/66 63/129/66
f 87/240/66 91/242/66 79/236/66
f 91/242/66 95/130/66 79/236/66
f 95/130/66 99/245/66 103/247/66
f 103/247/66 107/249/66 95/130/66
f 107/249/66 111/251/66 95/130/66
f 111/251/66 115/253/66 127/131/66
f 115/253/66 119/255/66 127/131/66
f 15/205/66 23/209/66 31/213/66
f 31/213/66 39/217/66 47/219/66
f 63/129/66 71/230/66 95/130/66
f 71/230/66 79/236/66 95/130/66
f 127/131/66 15/205/66 31/213/66
f 31/213/66 47/219/66 63/129/66
f 95/130/66 111/251/66 127/131/66
f 127/131/66 31/213/66 63/129/66
