# Blender v2.93.4 OBJ File: 'Pilot - Floating structure.blend'
# www.blender.org
o Ladder_Cube.002
v 3.894493 -2.479427 2.003399
v 3.894494 -2.479427 -1.996601
v 3.888493 -2.489820 2.003399
v 3.888494 -2.489819 -1.996601
v 3.946455 -2.509428 2.003399
v 3.946455 -2.509427 -1.996601
v 3.940455 -2.519820 2.003399
v 3.940455 -2.519819 -1.996601
v 4.094493 -2.133017 2.003399
v 4.094494 -2.133017 -1.996601
v 4.100493 -2.122625 2.003399
v 4.100494 -2.122624 -1.996601
v 4.146455 -2.163017 2.003399
v 4.146455 -2.163017 -1.996601
v 4.152455 -2.152625 2.003399
v 4.152455 -2.152624 -1.996601
v 4.109502 -2.135909 -1.846601
v 4.122974 -2.143687 -1.862157
v 3.904502 -2.490979 -1.846601
v 3.917974 -2.498757 -1.862157
v 4.122974 -2.143687 -1.831044
v 4.136446 -2.151465 -1.846601
v 3.917974 -2.498757 -1.831045
v 3.931447 -2.506535 -1.846601
v 4.109502 -2.135909 -1.546601
v 4.122974 -2.143687 -1.562157
v 3.904502 -2.490979 -1.546601
v 3.917974 -2.498757 -1.562157
v 4.122974 -2.143687 -1.531044
v 4.136446 -2.151465 -1.546601
v 3.917974 -2.498757 -1.531044
v 3.931447 -2.506535 -1.546601
v 4.109502 -2.135909 -1.246601
v 4.122974 -2.143687 -1.262157
v 3.904502 -2.490979 -1.246601
v 3.917974 -2.498757 -1.262157
v 4.122974 -2.143687 -1.231045
v 4.136446 -2.151465 -1.246601
v 3.917974 -2.498757 -1.231045
v 3.931447 -2.506535 -1.246601
v 4.109502 -2.135909 -0.946601
v 4.122974 -2.143687 -0.962157
v 3.904502 -2.490979 -0.946601
v 3.917974 -2.498757 -0.962157
v 4.122974 -2.143687 -0.931044
v 4.136446 -2.151465 -0.946601
v 3.917974 -2.498757 -0.931044
v 3.931447 -2.506535 -0.946601
v 4.109502 -2.135909 -0.646601
v 4.122974 -2.143687 -0.662157
v 3.904502 -2.490979 -0.646601
v 3.917974 -2.498757 -0.662157
v 4.122974 -2.143687 -0.631045
v 4.136446 -2.151465 -0.646601
v 3.917974 -2.498757 -0.631045
v 3.931447 -2.506536 -0.646601
v 4.109502 -2.135909 -0.346601
v 4.122974 -2.143687 -0.362157
v 3.904502 -2.490979 -0.346601
v 3.917974 -2.498757 -0.362157
v 4.122974 -2.143687 -0.331045
v 4.136446 -2.151465 -0.346601
v 3.917974 -2.498757 -0.331045
v 3.931447 -2.506536 -0.346601
v 4.109502 -2.135909 -0.046601
v 4.122974 -2.143687 -0.062157
v 3.904502 -2.490979 -0.046601
v 3.917974 -2.498757 -0.062157
v 4.122974 -2.143687 -0.031045
v 4.136446 -2.151465 -0.046601
v 3.917974 -2.498757 -0.031045
v 3.931447 -2.506536 -0.046601
v 4.109502 -2.135909 0.253399
v 4.122974 -2.143687 0.237843
v 3.904502 -2.490979 0.253399
v 3.917974 -2.498757 0.237843
v 4.122974 -2.143687 0.268955
v 4.136446 -2.151465 0.253399
v 3.917974 -2.498757 0.268955
v 3.931447 -2.506536 0.253399
v 4.109502 -2.135909 0.553399
v 4.122974 -2.143687 0.537843
v 3.904502 -2.490979 0.553399
v 3.917974 -2.498757 0.537843
v 4.122974 -2.143687 0.568955
v 4.136446 -2.151465 0.553399
v 3.917974 -2.498757 0.568955
v 3.931446 -2.506536 0.553399
v 4.109502 -2.135909 0.853399
v 4.122974 -2.143687 0.837843
v 3.904502 -2.490979 0.853399
v 3.917974 -2.498757 0.837843
v 4.122974 -2.143687 0.868955
v 4.136446 -2.151465 0.853399
v 3.917974 -2.498757 0.868955
v 3.931446 -2.506536 0.853399
v 4.109502 -2.135909 1.153399
v 4.122974 -2.143687 1.137843
v 3.904502 -2.490979 1.153399
v 3.917974 -2.498757 1.137843
v 4.122974 -2.143687 1.168955
v 4.136446 -2.151465 1.153399
v 3.917974 -2.498757 1.168955
v 3.931446 -2.506536 1.153399
v 4.109502 -2.135909 1.453399
v 4.122974 -2.143687 1.437843
v 3.904502 -2.490979 1.453399
v 3.917974 -2.498758 1.437843
v 4.122974 -2.143687 1.468955
v 4.136446 -2.151465 1.453399
v 3.917974 -2.498758 1.468955
v 3.931446 -2.506536 1.453399
v 4.109502 -2.135909 1.753399
v 4.122974 -2.143687 1.737843
v 3.904502 -2.490979 1.753399
v 3.917974 -2.498758 1.737843
v 4.122974 -2.143687 1.768955
v 4.136446 -2.151465 1.753399
v 3.917974 -2.498758 1.768955
v 3.931446 -2.506536 1.753399
v 3.780351 -2.427384 1.846028
v 3.780351 -2.427384 1.786028
v 3.774351 -2.437776 1.846028
v 3.774351 -2.437776 1.786028
v 3.914585 -2.504884 1.846028
v 3.914585 -2.504884 1.786028
v 3.908585 -2.515276 1.846028
v 3.908585 -2.515276 1.786028
v 3.780351 -2.427383 -1.936601
v 3.780351 -2.427383 -1.996601
v 3.774351 -2.437776 -1.936601
v 3.774352 -2.437776 -1.996601
v 3.914585 -2.504883 -1.936601
v 3.914585 -2.504883 -1.996601
v 3.908585 -2.515276 -1.936601
v 3.908585 -2.515276 -1.996601
v 3.780351 -2.427384 0.063399
v 3.780351 -2.427384 0.003399
v 3.774351 -2.437776 0.063399
v 3.774351 -2.437776 0.003399
v 3.914585 -2.504884 0.063399
v 3.914585 -2.504884 0.003399
v 3.908585 -2.515276 0.063399
v 3.908585 -2.515276 0.003399
v 3.992351 -2.060189 1.846028
v 3.992351 -2.060189 1.786028
v 3.998351 -2.049797 1.846028
v 3.998351 -2.049797 1.786028
v 4.126585 -2.137689 1.846028
v 4.126585 -2.137689 1.786028
v 4.132585 -2.127297 1.846028
v 4.132585 -2.127297 1.786028
v 3.992352 -2.060189 -1.936601
v 3.992352 -2.060189 -1.996601
v 3.998352 -2.049796 -1.936601
v 3.998352 -2.049796 -1.996601
v 4.126585 -2.137689 -1.936601
v 4.126585 -2.137689 -1.996601
v 4.132586 -2.127296 -1.936601
v 4.132586 -2.127296 -1.996601
v 3.992351 -2.060189 0.063399
v 3.992351 -2.060189 0.003399
v 3.998351 -2.049797 0.063399
v 3.998351 -2.049797 0.003399
v 4.126585 -2.137689 0.063399
v 4.126585 -2.137689 0.003399
v 4.132585 -2.127296 0.063399
v 4.132585 -2.127296 0.003399
vt 0.625000 0.000000
vt 0.375000 0.250000
vt 0.375000 0.000000
vt 0.625000 0.250000
vt 0.375000 0.500000
vt 0.625000 0.500000
vt 0.375000 0.750000
vt 0.625000 0.750000
vt 0.375000 1.000000
vt 0.125000 0.750000
vt 0.125000 0.500000
vt 0.875000 0.500000
vt 0.375000 0.250000
vt 0.625000 0.000000
vt 0.375000 0.000000
vt 0.375000 0.500000
vt 0.625000 0.250000
vt 0.375000 0.750000
vt 0.625000 0.500000
vt 0.375000 1.000000
vt 0.625000 0.750000
vt 0.125000 0.750000
vt 0.125000 0.500000
vt 0.875000 0.500000
vt 0.375000 0.000000
vt 0.625000 0.250000
vt 0.375000 0.250000
vt 0.375000 0.500000
vt 0.625000 0.500000
vt 0.375000 0.750000
vt 0.625000 0.750000
vt 0.375000 1.000000
vt 0.125000 0.750000
vt 0.125000 0.500000
vt 0.875000 0.500000
vt 0.375000 0.000000
vt 0.625000 0.250000
vt 0.375000 0.250000
vt 0.375000 0.500000
vt 0.625000 0.500000
vt 0.375000 0.750000
vt 0.625000 1.000000
vt 0.375000 1.000000
vt 0.125000 0.500000
vt 0.125000 0.750000
vt 0.875000 0.500000
vt 0.625000 0.750000
vt 0.375000 0.000000
vt 0.625000 0.250000
vt 0.375000 0.250000
vt 0.375000 0.500000
vt 0.625000 0.500000
vt 0.375000 0.750000
vt 0.625000 1.000000
vt 0.375000 1.000000
vt 0.125000 0.750000
vt 0.125000 0.500000
vt 0.875000 0.500000
vt 0.625000 0.750000
vt 0.625000 0.000000
vt 0.375000 0.250000
vt 0.375000 0.000000
vt 0.625000 0.250000
vt 0.375000 0.500000
vt 0.625000 0.500000
vt 0.375000 0.750000
vt 0.625000 1.000000
vt 0.375000 1.000000
vt 0.125000 0.750000
vt 0.125000 0.500000
vt 0.875000 0.500000
vt 0.625000 0.750000
vt 0.625000 0.000000
vt 0.375000 0.250000
vt 0.375000 0.000000
vt 0.625000 0.250000
vt 0.375000 0.500000
vt 0.625000 0.500000
vt 0.375000 0.750000
vt 0.625000 1.000000
vt 0.375000 1.000000
vt 0.125000 0.750000
vt 0.125000 0.500000
vt 0.875000 0.500000
vt 0.625000 0.750000
vt 0.625000 0.000000
vt 0.375000 0.250000
vt 0.375000 0.000000
vt 0.625000 0.250000
vt 0.375000 0.500000
vt 0.625000 0.500000
vt 0.375000 0.750000
vt 0.625000 1.000000
vt 0.375000 1.000000
vt 0.125000 0.750000
vt 0.125000 0.500000
vt 0.875000 0.500000
vt 0.625000 0.750000
vt 0.625000 0.000000
vt 0.375000 0.250000
vt 0.375000 0.000000
vt 0.625000 0.250000
vt 0.375000 0.500000
vt 0.625000 0.500000
vt 0.375000 0.750000
vt 0.625000 1.000000
vt 0.375000 1.000000
vt 0.125000 0.750000
vt 0.125000 0.500000
vt 0.875000 0.500000
vt 0.625000 0.750000
vt 0.625000 0.000000
vt 0.375000 0.250000
vt 0.375000 0.000000
vt 0.625000 0.250000
vt 0.375000 0.500000
vt 0.625000 0.500000
vt 0.375000 0.750000
vt 0.625000 1.000000
vt 0.375000 1.000000
vt 0.125000 0.750000
vt 0.125000 0.500000
vt 0.875000 0.500000
vt 0.625000 0.750000
vt 0.625000 0.000000
vt 0.375000 0.250000
vt 0.375000 0.000000
vt 0.625000 0.250000
vt 0.375000 0.500000
vt 0.625000 0.500000
vt 0.375000 0.750000
vt 0.625000 1.000000
vt 0.375000 1.000000
vt 0.125000 0.750000
vt 0.125000 0.500000
vt 0.875000 0.500000
vt 0.625000 0.750000
vt 0.625000 0.000000
vt 0.375000 0.250000
vt 0.375000 0.000000
vt 0.625000 0.250000
vt 0.375000 0.500000
vt 0.625000 0.500000
vt 0.375000 0.750000
vt 0.625000 1.000000
vt 0.375000 1.000000
vt 0.125000 0.750000
vt 0.125000 0.500000
vt 0.875000 0.500000
vt 0.625000 0.750000
vt 0.625000 0.000000
vt 0.375000 0.250000
vt 0.375000 0.000000
vt 0.625000 0.250000
vt 0.375000 0.500000
vt 0.625000 0.500000
vt 0.375000 0.750000
vt 0.625000 1.000000
vt 0.375000 1.000000
vt 0.125000 0.750000
vt 0.125000 0.500000
vt 0.875000 0.500000
vt 0.625000 0.750000
vt 0.625000 0.000000
vt 0.375000 0.250000
vt 0.375000 0.000000
vt 0.625000 0.250000
vt 0.375000 0.500000
vt 0.625000 0.500000
vt 0.375000 0.750000
vt 0.625000 1.000000
vt 0.375000 1.000000
vt 0.125000 0.750000
vt 0.125000 0.500000
vt 0.875000 0.500000
vt 0.625000 0.750000
vt 0.625000 0.000000
vt 0.375000 0.250000
vt 0.375000 0.000000
vt 0.625000 0.250000
vt 0.375000 0.500000
vt 0.625000 0.500000
vt 0.375000 0.750000
vt 0.625000 1.000000
vt 0.375000 1.000000
vt 0.125000 0.750000
vt 0.125000 0.500000
vt 0.875000 0.500000
vt 0.625000 0.750000
vt 0.625000 0.000000
vt 0.375000 0.250000
vt 0.375000 0.000000
vt 0.625000 0.250000
vt 0.375000 0.500000
vt 0.625000 0.500000
vt 0.375000 0.750000
vt 0.625000 0.750000
vt 0.375000 1.000000
vt 0.125000 0.750000
vt 0.125000 0.500000
vt 0.875000 0.500000
vt 0.625000 0.000000
vt 0.375000 0.250000
vt 0.375000 0.000000
vt 0.625000 0.250000
vt 0.375000 0.500000
vt 0.625000 0.500000
vt 0.375000 0.750000
vt 0.625000 0.750000
vt 0.375000 1.000000
vt 0.125000 0.750000
vt 0.125000 0.500000
vt 0.875000 0.500000
vt 0.625000 0.000000
vt 0.375000 0.250000
vt 0.375000 0.000000
vt 0.625000 0.250000
vt 0.375000 0.500000
vt 0.625000 0.500000
vt 0.375000 0.750000
vt 0.625000 0.750000
vt 0.375000 1.000000
vt 0.125000 0.750000
vt 0.125000 0.500000
vt 0.875000 0.500000
vt 0.375000 0.250000
vt 0.625000 0.000000
vt 0.375000 0.000000
vt 0.375000 0.500000
vt 0.625000 0.250000
vt 0.375000 0.750000
vt 0.625000 0.500000
vt 0.375000 1.000000
vt 0.625000 0.750000
vt 0.125000 0.750000
vt 0.125000 0.500000
vt 0.875000 0.500000
vt 0.375000 0.250000
vt 0.625000 0.000000
vt 0.375000 0.000000
vt 0.375000 0.500000
vt 0.625000 0.250000
vt 0.375000 0.750000
vt 0.625000 0.500000
vt 0.375000 1.000000
vt 0.625000 0.750000
vt 0.125000 0.750000
vt 0.125000 0.500000
vt 0.875000 0.500000
vt 0.375000 0.250000
vt 0.625000 0.000000
vt 0.375000 0.000000
vt 0.375000 0.500000
vt 0.625000 0.250000
vt 0.375000 0.750000
vt 0.625000 0.500000
vt 0.375000 1.000000
vt 0.625000 0.750000
vt 0.125000 0.750000
vt 0.125000 0.500000
vt 0.875000 0.500000
vt 0.625000 1.000000
vt 0.875000 0.750000
vt 0.625000 1.000000
vt 0.875000 0.750000
vt 0.625000 0.000000
vt 0.625000 1.000000
vt 0.875000 0.750000
vt 0.625000 0.000000
vt 0.875000 0.750000
vt 0.625000 0.000000
vt 0.875000 0.750000
vt 0.875000 0.750000
vt 0.875000 0.750000
vt 0.875000 0.750000
vt 0.875000 0.750000
vt 0.875000 0.750000
vt 0.875000 0.750000
vt 0.875000 0.750000
vt 0.875000 0.750000
vt 0.875000 0.750000
vt 0.875000 0.750000
vt 0.625000 1.000000
vt 0.875000 0.750000
vt 0.625000 1.000000
vt 0.875000 0.750000
vt 0.625000 1.000000
vt 0.875000 0.750000
vt 0.625000 1.000000
vt 0.875000 0.750000
vt 0.625000 1.000000
vt 0.875000 0.750000
vt 0.625000 1.000000
vt 0.875000 0.750000
vn -0.8660 0.5000 -0.0000
vn -0.5000 -0.8660 -0.0000
vn 0.8660 -0.5000 -0.0000
vn 0.5000 0.8660 0.0000
vn -0.0000 0.0000 1.0000
vn 0.0000 0.0000 -1.0000
vn -0.6124 0.3536 -0.7071
vn 0.6124 -0.3536 0.7071
vn -0.6124 0.3536 0.7071
vn 0.6124 -0.3536 -0.7071
vn 0.8661 -0.4999 0.0000
vn -0.6124 0.3535 -0.7071
vn -0.6124 0.3535 0.7071
vn 0.6124 -0.3535 -0.7071
s off
f 2/1/1 3/2/1 1/3/1
f 4/4/2 7/5/2 3/2/2
f 8/6/3 5/7/3 7/5/3
f 6/8/4 1/9/4 5/7/4
f 7/5/5 1/10/5 3/11/5
f 4/12/6 6/8/6 8/6/6
f 11/13/1 10/14/1 9/15/1
f 15/16/4 12/17/4 11/13/4
f 13/18/3 16/19/3 15/16/3
f 9/20/2 14/21/2 13/18/2
f 9/22/5 15/16/5 11/23/5
f 14/21/6 12/24/6 16/19/6
f 17/25/7 20/26/7 19/27/7
f 20/26/2 23/28/2 19/27/2
f 24/29/8 21/30/8 23/28/8
f 22/31/4 17/32/4 21/30/4
f 23/28/9 17/33/9 19/34/9
f 20/35/10 22/31/10 24/29/10
f 25/36/7 28/37/7 27/38/7
f 28/37/2 31/39/2 27/38/2
f 32/40/8 29/41/8 31/39/8
f 29/41/4 26/42/4 25/43/4
f 27/44/9 29/41/9 25/45/9
f 28/46/10 30/47/10 32/40/10
f 33/48/7 36/49/7 35/50/7
f 36/49/2 39/51/2 35/50/2
f 40/52/8 37/53/8 39/51/8
f 37/53/4 34/54/4 33/55/4
f 39/51/9 33/56/9 35/57/9
f 36/58/10 38/59/10 40/52/10
f 42/60/7 43/61/7 41/62/7
f 44/63/2 47/64/2 43/61/2
f 48/65/8 45/66/8 47/64/8
f 45/66/4 42/67/4 41/68/4
f 47/64/9 41/69/9 43/70/9
f 44/71/10 46/72/10 48/65/10
f 50/73/7 51/74/7 49/75/7
f 52/76/2 55/77/2 51/74/2
f 56/78/8 53/79/8 55/77/8
f 53/79/4 50/80/4 49/81/4
f 55/77/9 49/82/9 51/83/9
f 52/84/10 54/85/10 56/78/10
f 58/86/7 59/87/7 57/88/7
f 60/89/2 63/90/2 59/87/2
f 64/91/8 61/92/8 63/90/8
f 61/92/4 58/93/4 57/94/4
f 63/90/9 57/95/9 59/96/9
f 60/97/10 62/98/10 64/91/10
f 66/99/7 67/100/7 65/101/7
f 68/102/2 71/103/2 67/100/2
f 72/104/8 69/105/8 71/103/8
f 69/105/4 66/106/4 65/107/4
f 71/103/9 65/108/9 67/109/9
f 68/110/10 70/111/10 72/104/10
f 74/112/7 75/113/7 73/114/7
f 76/115/2 79/116/2 75/113/2
f 80/117/8 77/118/8 79/116/8
f 77/118/4 74/119/4 73/120/4
f 79/116/9 73/121/9 75/122/9
f 76/123/10 78/124/10 80/117/10
f 82/125/7 83/126/7 81/127/7
f 84/128/2 87/129/2 83/126/2
f 88/130/8 85/131/8 87/129/8
f 85/131/4 82/132/4 81/133/4
f 87/129/9 81/134/9 83/135/9
f 84/136/10 86/137/10 88/130/10
f 90/138/7 91/139/7 89/140/7
f 92/141/2 95/142/2 91/139/2
f 96/143/8 93/144/8 95/142/8
f 93/144/4 90/145/4 89/146/4
f 95/142/9 89/147/9 91/148/9
f 92/149/10 94/150/10 96/143/10
f 98/151/7 99/152/7 97/153/7
f 100/154/2 103/155/2 99/152/2
f 104/156/8 101/157/8 103/155/8
f 101/157/4 98/158/4 97/159/4
f 103/155/9 97/160/9 99/161/9
f 100/162/10 102/163/10 104/156/10
f 106/164/7 107/165/7 105/166/7
f 108/167/2 111/168/2 107/165/2
f 112/169/8 109/170/8 111/168/8
f 109/170/4 106/171/4 105/172/4
f 111/168/9 105/173/9 107/174/9
f 108/175/10 110/176/10 112/169/10
f 114/177/7 115/178/7 113/179/7
f 116/180/2 119/181/2 115/178/2
f 120/182/8 117/183/8 119/181/8
f 117/183/4 114/184/4 113/185/4
f 119/181/9 113/186/9 115/187/9
f 116/188/10 118/189/10 120/182/10
f 122/190/1 123/191/1 121/192/1
f 124/193/2 127/194/2 123/191/2
f 128/195/3 125/196/3 127/194/3
f 126/197/4 121/198/4 125/196/4
f 127/194/5 121/199/5 123/200/5
f 124/201/6 126/197/6 128/195/6
f 130/202/1 131/203/1 129/204/1
f 132/205/2 135/206/2 131/203/2
f 136/207/3 133/208/3 135/206/3
f 134/209/4 129/210/4 133/208/4
f 135/206/5 129/211/5 131/212/5
f 132/213/6 134/209/6 136/207/6
f 138/214/1 139/215/1 137/216/1
f 140/217/2 143/218/2 139/215/2
f 144/219/3 141/220/3 143/218/3
f 142/221/4 137/222/4 141/220/4
f 143/218/5 137/223/5 139/224/5
f 140/225/6 142/221/6 144/219/6
f 147/226/1 146/227/1 145/228/1
f 151/229/4 148/230/4 147/226/4
f 149/231/11 152/232/11 151/229/11
f 145/233/2 150/234/2 149/231/2
f 145/235/5 151/229/5 147/236/5
f 150/234/6 148/237/6 152/232/6
f 155/238/1 154/239/1 153/240/1
f 159/241/4 156/242/4 155/238/4
f 157/243/3 160/244/3 159/241/3
f 153/245/2 158/246/2 157/243/2
f 153/247/5 159/241/5 155/248/5
f 158/246/6 156/249/6 160/244/6
f 163/250/1 162/251/1 161/252/1
f 167/253/4 164/254/4 163/250/4
f 165/255/11 168/256/11 167/253/11
f 161/257/2 166/258/2 165/255/2
f 161/259/5 167/253/5 163/260/5
f 166/258/6 164/261/6 168/256/6
f 2/1/1 4/4/1 3/2/1
f 4/4/2 8/6/2 7/5/2
f 8/6/3 6/8/3 5/7/3
f 6/8/4 2/262/4 1/9/4
f 7/5/5 5/7/5 1/10/5
f 4/12/6 2/263/6 6/8/6
f 11/13/1 12/17/1 10/14/1
f 15/16/4 16/19/4 12/17/4
f 13/18/3 14/21/3 16/19/3
f 9/20/2 10/264/2 14/21/2
f 9/22/5 13/18/5 15/16/5
f 14/21/6 10/265/6 12/24/6
f 17/25/7 18/266/7 20/26/7
f 20/26/2 24/29/2 23/28/2
f 24/29/8 22/31/8 21/30/8
f 22/31/4 18/267/4 17/32/4
f 23/28/9 21/30/9 17/33/9
f 20/35/10 18/268/10 22/31/10
f 25/36/7 26/269/7 28/37/7
f 28/37/2 32/40/2 31/39/2
f 32/40/8 30/47/8 29/41/8
f 29/41/4 30/47/4 26/42/4
f 27/44/9 31/39/9 29/41/9
f 28/46/10 26/270/10 30/47/10
f 33/48/7 34/271/7 36/49/7
f 36/49/2 40/52/2 39/51/2
f 40/52/8 38/59/8 37/53/8
f 37/53/4 38/59/4 34/54/4
f 39/51/9 37/53/9 33/56/9
f 36/58/10 34/272/10 38/59/10
f 42/60/7 44/63/7 43/61/7
f 44/63/2 48/65/2 47/64/2
f 48/65/8 46/72/8 45/66/8
f 45/66/4 46/72/4 42/67/4
f 47/64/9 45/66/9 41/69/9
f 44/71/10 42/273/10 46/72/10
f 50/73/7 52/76/7 51/74/7
f 52/76/2 56/78/2 55/77/2
f 56/78/8 54/85/8 53/79/8
f 53/79/4 54/85/4 50/80/4
f 55/77/9 53/79/9 49/82/9
f 52/84/10 50/274/10 54/85/10
f 58/86/7 60/89/7 59/87/7
f 60/89/2 64/91/2 63/90/2
f 64/91/8 62/98/8 61/92/8
f 61/92/4 62/98/4 58/93/4
f 63/90/9 61/92/9 57/95/9
f 60/97/10 58/275/10 62/98/10
f 66/99/7 68/102/7 67/100/7
f 68/102/2 72/104/2 71/103/2
f 72/104/8 70/111/8 69/105/8
f 69/105/4 70/111/4 66/106/4
f 71/103/9 69/105/9 65/108/9
f 68/110/10 66/276/10 70/111/10
f 74/112/7 76/115/7 75/113/7
f 76/115/2 80/117/2 79/116/2
f 80/117/8 78/124/8 77/118/8
f 77/118/4 78/124/4 74/119/4
f 79/116/9 77/118/9 73/121/9
f 76/123/10 74/277/10 78/124/10
f 82/125/7 84/128/7 83/126/7
f 84/128/2 88/130/2 87/129/2
f 88/130/8 86/137/8 85/131/8
f 85/131/4 86/137/4 82/132/4
f 87/129/9 85/131/9 81/134/9
f 84/136/10 82/278/10 86/137/10
f 90/138/7 92/141/7 91/139/7
f 92/141/2 96/143/2 95/142/2
f 96/143/8 94/150/8 93/144/8
f 93/144/4 94/150/4 90/145/4
f 95/142/9 93/144/9 89/147/9
f 92/149/10 90/279/10 94/150/10
f 98/151/7 100/154/7 99/152/7
f 100/154/2 104/156/2 103/155/2
f 104/156/8 102/163/8 101/157/8
f 101/157/4 102/163/4 98/158/4
f 103/155/9 101/157/9 97/160/9
f 100/162/10 98/280/10 102/163/10
f 106/164/12 108/167/12 107/165/12
f 108/167/2 112/169/2 111/168/2
f 112/169/8 110/176/8 109/170/8
f 109/170/4 110/176/4 106/171/4
f 111/168/13 109/170/13 105/173/13
f 108/175/10 106/281/10 110/176/10
f 114/177/7 116/180/7 115/178/7
f 116/180/2 120/182/2 119/181/2
f 120/182/8 118/189/8 117/183/8
f 117/183/4 118/189/4 114/184/4
f 119/181/9 117/183/9 113/186/9
f 116/188/14 114/282/14 118/189/14
f 122/190/1 124/193/1 123/191/1
f 124/193/2 128/195/2 127/194/2
f 128/195/3 126/197/3 125/196/3
f 126/197/4 122/283/4 121/198/4
f 127/194/5 125/196/5 121/199/5
f 124/201/6 122/284/6 126/197/6
f 130/202/1 132/205/1 131/203/1
f 132/205/2 136/207/2 135/206/2
f 136/207/3 134/209/3 133/208/3
f 134/209/4 130/285/4 129/210/4
f 135/206/5 133/208/5 129/211/5
f 132/213/6 130/286/6 134/209/6
f 138/214/1 140/217/1 139/215/1
f 140/217/2 144/219/2 143/218/2
f 144/219/3 142/221/3 141/220/3
f 142/221/4 138/287/4 137/222/4
f 143/218/5 141/220/5 137/223/5
f 140/225/6 138/288/6 142/221/6
f 147/226/1 148/230/1 146/227/1
f 151/229/4 152/232/4 148/230/4
f 149/231/3 150/234/3 152/232/3
f 145/233/2 146/289/2 150/234/2
f 145/235/5 149/231/5 151/229/5
f 150/234/6 146/290/6 148/237/6
f 155/238/1 156/242/1 154/239/1
f 159/241/4 160/244/4 156/242/4
f 157/243/3 158/246/3 160/244/3
f 153/245/2 154/291/2 158/246/2
f 153/247/5 157/243/5 159/241/5
f 158/246/6 154/292/6 156/249/6
f 163/250/1 164/254/1 162/251/1
f 167/253/4 168/256/4 164/254/4
f 165/255/3 166/258/3 168/256/3
f 161/257/2 162/293/2 166/258/2
f 161/259/5 165/255/5 167/253/5
f 166/258/6 162/294/6 164/261/6
