# Blender v2.81 (sub 16) OBJ File: 'experimental rigs.blend'
# www.blender.org
v -0.099000 0.040400 0.000000
v -0.099000 0.037676 -0.015606
v 0.099000 0.038156 -0.014704
v -0.099000 0.026286 -0.030908
v 0.099000 0.025186 -0.031811
v -0.099000 0.008972 -0.039894
v 0.099000 0.006977 -0.040291
v -0.099000 -0.012457 -0.038615
v 0.099000 -0.011095 -0.039028
v -0.099000 -0.029624 -0.028186
v 0.099000 -0.025186 -0.031811
v -0.099000 -0.038615 -0.012457
v 0.099000 -0.038156 -0.014704
v -0.099000 -0.040400 0.000000
v 0.099000 -0.040400 0.000000
v -0.099000 -0.038615 0.012457
v 0.099000 -0.038156 0.014704
v -0.099000 -0.029624 0.028186
v 0.099000 -0.025186 0.031811
v -0.099000 -0.012457 0.038615
v 0.099000 -0.011095 0.039028
v -0.099000 0.008972 0.039894
v 0.099000 0.006977 0.040291
v -0.099000 0.026286 0.030909
v 0.099000 0.025186 0.031811
v -0.099000 0.037676 0.015606
v 0.099000 0.038156 0.014704
v 0.019594 0.040400 0.000000
v 0.019594 0.037676 -0.015606
v 0.019594 0.020505 -0.035891
v 0.019594 -0.004685 -0.040303
v 0.019594 -0.022656 -0.033908
v 0.019594 -0.037676 -0.015606
v 0.019594 -0.040400 0.000000
v 0.019594 -0.037676 0.015606
v 0.019594 -0.022656 0.033908
v 0.019594 -0.004685 0.040303
v 0.019594 0.020505 0.035891
v 0.019594 0.037676 0.015606
v 0.067195 0.040400 -0.000000
v 0.067195 0.037676 -0.015606
v 0.067195 0.026286 -0.030908
v 0.067195 0.008972 -0.039894
v 0.067195 -0.012457 -0.038615
v 0.067195 -0.029624 -0.028186
v 0.067195 -0.038769 -0.011760
v 0.067195 -0.040400 0.000000
v 0.067195 -0.038769 0.011760
v 0.067195 -0.029624 0.028186
v 0.067195 -0.012457 0.038615
v 0.067195 0.008972 0.039894
v 0.067195 0.026286 0.030908
v 0.067195 0.037676 0.015606
v -0.019355 0.037377 -0.016583
v -0.019355 0.025701 -0.031317
v -0.019355 0.008972 -0.039894
v -0.019355 -0.012457 -0.038615
v -0.019355 -0.029624 -0.028186
v -0.019355 -0.039028 -0.011096
v -0.019355 -0.040400 0.000000
v -0.019355 -0.039028 0.011096
v -0.019355 -0.029624 0.028186
v -0.019355 -0.012457 0.038615
v -0.019355 0.008972 0.039894
v -0.019355 0.025701 0.031317
v -0.019355 0.037377 0.016583
v -0.019355 0.040400 0.000000
v -0.066921 0.037676 -0.015606
v -0.066921 0.025186 -0.031811
v -0.066921 0.006977 -0.040291
v -0.066921 -0.014704 -0.038156
v -0.066921 -0.031811 -0.025186
v -0.066921 -0.039028 -0.011096
v -0.066921 -0.040400 0.000000
v -0.066921 -0.039028 0.011096
v -0.066921 -0.031811 0.025186
v -0.066921 -0.014704 0.038156
v -0.066921 0.006977 0.040291
v -0.066921 0.025186 0.031811
v -0.066921 0.037676 0.015606
v -0.066921 0.040400 0.000000
v -0.066921 0.060297 -0.000000
v -0.019355 0.060297 -0.000000
v -0.019355 0.056232 -0.023292
v -0.019355 0.039233 -0.046131
v -0.019355 0.016560 -0.058250
v -0.019355 -0.006992 -0.060153
v -0.019355 -0.029479 -0.052898
v -0.019355 -0.047478 -0.037591
v -0.019355 -0.058250 -0.016560
v -0.019355 -0.060297 0.000000
v -0.019355 -0.058250 0.016560
v -0.019355 -0.047478 0.037591
v -0.019355 -0.029479 0.052898
v -0.019355 -0.006992 0.060153
v -0.019355 0.016560 0.058250
v -0.019355 0.039233 0.046131
v -0.019355 0.056232 0.023292
v -0.066921 0.056232 -0.023292
v -0.066921 0.037591 -0.047478
v -0.066921 0.018593 -0.057633
v -0.066921 -0.006992 -0.060153
v -0.066921 -0.029479 -0.052898
v -0.066921 -0.046131 -0.039233
v -0.066921 -0.058250 -0.016560
v -0.066921 -0.060297 0.000000
v -0.066921 -0.058250 0.016560
v -0.066921 -0.046131 0.039233
v -0.066921 -0.029479 0.052898
v -0.066921 -0.006992 0.060153
v -0.066921 0.018593 0.057633
v -0.066921 0.037591 0.047478
v -0.066921 0.056232 0.023292
v 0.067195 0.056947 -0.021945
v 0.019594 0.057633 -0.018593
v 0.019594 0.046131 -0.039232
v 0.067195 0.037591 -0.047478
v 0.019594 0.024750 -0.055785
v 0.067195 0.016560 -0.058250
v 0.067195 -0.006992 -0.060153
v 0.019594 -0.006992 -0.060153
v 0.067195 -0.029479 -0.052898
v 0.019594 -0.029479 -0.052898
v 0.067195 -0.049885 -0.035158
v 0.019594 -0.051572 -0.032633
v 0.067195 -0.059138 -0.011763
v 0.019594 -0.059138 -0.011763
v 0.067195 -0.060297 0.000000
v 0.019594 -0.060297 0.000000
v 0.067195 -0.059138 0.011763
v 0.019594 -0.059138 0.011763
v 0.067195 -0.049885 0.035158
v 0.019594 -0.051572 0.032633
v 0.067195 -0.029479 0.052898
v 0.019594 -0.029479 0.052898
v 0.067195 -0.006992 0.060153
v 0.019594 -0.006992 0.060153
v 0.067195 0.016560 0.058250
v 0.019594 0.024750 0.055785
v 0.067195 0.037591 0.047478
v 0.019594 0.046131 0.039232
v 0.067195 0.056947 0.021945
v 0.019594 0.057633 0.018593
v 0.019594 0.060297 -0.000000
v 0.067195 0.060297 -0.000000
v -0.099000 0.040400 0.000000
v -0.099000 0.037676 -0.015606
v -0.099000 0.026286 -0.030908
v 0.099000 0.025186 -0.031811
v 0.099000 0.038156 -0.014704
v -0.099000 0.008972 -0.039894
v 0.099000 0.006977 -0.040291
v -0.099000 -0.012457 -0.038615
v -0.099000 -0.029624 -0.028186
v 0.099000 -0.038156 -0.014704
v 0.099000 -0.025186 -0.031811
v -0.099000 -0.038615 -0.012457
v -0.099000 -0.040400 0.000000
v 0.099000 -0.040400 0.000000
v -0.099000 -0.038615 0.012457
v -0.099000 -0.029624 0.028186
v 0.099000 -0.025186 0.031811
v 0.099000 -0.038156 0.014704
v -0.099000 -0.012457 0.038615
v 0.099000 -0.011095 0.039028
v -0.099000 0.008972 0.039894
v -0.099000 0.026286 0.030909
v -0.099000 0.037676 0.015606
v 0.099000 0.038156 0.014704
v 0.019594 0.037676 0.015606
v 0.019594 0.040400 0.000000
v 0.019594 0.020505 0.035891
v 0.019594 -0.004685 0.040303
v 0.019594 -0.022656 0.033908
v 0.019594 -0.037676 0.015606
v 0.019594 -0.040400 0.000000
v 0.019594 -0.037676 -0.015606
v 0.019594 -0.022656 -0.033908
v 0.019594 -0.004685 -0.040303
v 0.019594 0.020505 -0.035891
v 0.019594 0.037676 -0.015606
v 0.067195 0.037676 0.015606
v 0.067195 0.040400 -0.000000
v 0.067195 0.026286 0.030908
v 0.067195 0.008972 0.039894
v 0.067195 -0.012457 0.038615
v 0.067195 -0.029624 0.028186
v 0.067195 -0.038769 0.011760
v 0.067195 -0.040400 0.000000
v 0.067195 -0.038769 -0.011760
v 0.067195 -0.029624 -0.028186
v 0.067195 -0.012457 -0.038615
v 0.067195 0.008972 -0.039894
v 0.067195 0.026286 -0.030908
v 0.067195 0.037676 -0.015606
v -0.019355 0.040400 0.000000
v -0.019355 0.037377 -0.016583
v -0.019355 0.025701 -0.031317
v -0.019355 0.008972 -0.039894
v -0.019355 -0.012457 -0.038615
v -0.019355 -0.029624 -0.028186
v -0.019355 -0.039028 -0.011096
v -0.019355 -0.040400 0.000000
v -0.019355 -0.039028 0.011096
v -0.019355 -0.029624 0.028186
v -0.019355 -0.012457 0.038615
v -0.019355 0.008972 0.039894
v -0.019355 0.025701 0.031317
v -0.019355 0.037377 0.016583
v -0.066921 0.037676 0.015606
v -0.066921 0.040400 0.000000
v -0.066921 0.025186 0.031811
v -0.066921 0.006977 0.040291
v -0.066921 -0.014704 0.038156
v -0.066921 -0.031811 0.025186
v -0.066921 -0.039028 0.011096
v -0.066921 -0.040400 0.000000
v -0.066921 -0.039028 -0.011096
v -0.066921 -0.031811 -0.025186
v -0.066921 -0.014704 -0.038156
v -0.066921 0.006977 -0.040291
v -0.066921 0.025186 -0.031811
v -0.066921 0.037676 -0.015606
v -0.019355 0.060297 -0.000000
v -0.019355 0.056232 -0.023292
v -0.019355 0.039233 -0.046131
v -0.019355 0.016560 -0.058250
v -0.019355 -0.006992 -0.060153
v -0.019355 -0.029479 -0.052898
v -0.019355 -0.047478 -0.037591
v -0.019355 -0.058250 -0.016560
v -0.019355 -0.060297 0.000000
v -0.019355 -0.058250 0.016560
v -0.019355 -0.047478 0.037591
v -0.019355 -0.029479 0.052898
v -0.019355 -0.006992 0.060153
v -0.019355 0.016560 0.058250
v -0.019355 0.039233 0.046131
v -0.019355 0.056232 0.023292
v -0.066921 0.056232 0.023292
v -0.066921 0.060297 -0.000000
v -0.066921 0.037591 0.047478
v -0.066921 0.018593 0.057633
v -0.066921 -0.006992 0.060153
v -0.066921 -0.029479 0.052898
v -0.066921 -0.046131 0.039233
v -0.066921 -0.058250 0.016560
v -0.066921 -0.060297 0.000000
v -0.066921 -0.058250 -0.016560
v -0.066921 -0.046131 -0.039233
v -0.066921 -0.029479 -0.052898
v -0.066921 -0.006992 -0.060153
v -0.066921 0.018593 -0.057633
v -0.066921 0.037591 -0.047478
v -0.066921 0.056232 -0.023292
v 0.019594 0.057633 0.018593
v 0.019594 0.060297 -0.000000
v 0.019594 0.046131 0.039232
v 0.019594 0.024750 0.055785
v 0.019594 -0.006992 0.060153
v 0.019594 -0.029479 0.052898
v 0.019594 -0.051572 0.032633
v 0.019594 -0.059138 0.011763
v 0.019594 -0.060297 0.000000
v 0.019594 -0.059138 -0.011763
v 0.019594 -0.051572 -0.032633
v 0.019594 -0.029479 -0.052898
v 0.019594 -0.006992 -0.060153
v 0.019594 0.024750 -0.055785
v 0.019594 0.046131 -0.039232
v 0.019594 0.057633 -0.018593
v 0.067195 0.056947 0.021945
v 0.067195 0.060297 -0.000000
v 0.067195 0.037591 0.047478
v 0.067195 0.016560 0.058250
v 0.067195 -0.006992 0.060153
v 0.067195 -0.029479 0.052898
v 0.067195 -0.049885 0.035158
v 0.067195 -0.059138 0.011763
v 0.067195 -0.060297 0.000000
v 0.067195 -0.059138 -0.011763
v 0.067195 -0.049885 -0.035158
v 0.067195 -0.029479 -0.052898
v 0.067195 -0.006992 -0.060153
v 0.067195 0.016560 -0.058250
v 0.067195 0.037591 -0.047478
v 0.067195 0.056947 -0.021945
v 0.099000 0.025186 0.031811
v 0.099000 0.006977 0.040291
v 0.099000 -0.011095 -0.039028
vn 0.0123 0.9999 0.0000
vn 0.0295 0.9416 -0.3353
vn -0.0025 0.9167 -0.3995
vn -0.0009 0.6514 -0.7587
vn 0.0087 0.6286 -0.7777
vn -0.0084 0.2109 -0.9775
vn 0.0009 0.1739 -0.9847
vn -0.0012 -0.3063 -0.9519
vn -0.0153 -0.2749 -0.9613
vn -0.0030 -0.7139 -0.7002
vn 0.0109 -0.9255 -0.3786
vn -0.0100 -0.9517 -0.3069
vn 0.0046 -1.0000 0.0000
vn 0.0109 -0.9255 0.3786
vn -0.0100 -0.9517 0.3069
vn -0.0128 -0.7206 0.6932
vn 0.0173 -0.6336 0.7734
vn -0.0133 -0.2943 0.9556
vn -0.0036 -0.2608 0.9654
vn 0.0033 0.2170 0.9762
vn -0.0095 0.1791 0.9838
vn 0.0094 0.6470 0.7624
vn -0.0023 0.6238 0.7815
vn -0.0005 0.9160 0.4011
vn 1.0000 0.0000 0.0000
vn 0.0278 0.9412 0.3368
vn -1.0000 0.0000 0.0000
vn 0.0049 0.9071 0.4208
vn -0.0012 1.0000 -0.0009
vn 0.0108 0.9066 0.4218
vn 0.0223 0.5072 0.8615
vn -0.0019 0.6525 0.7577
vn -0.0204 0.2016 0.9792
vn 0.0265 -0.0910 0.9955
vn -0.0237 -0.2979 0.9543
vn 0.0256 -0.5698 0.8213
vn -0.0158 -0.7240 0.6896
vn 0.0206 -0.9124 0.4087
vn -0.0101 -0.9538 0.3001
vn 0.0119 -0.9999 0.0000
vn 0.0000 -1.0000 0.0000
vn -0.0101 -0.9538 -0.3001
vn 0.0206 -0.9124 -0.4087
vn -0.0158 -0.7240 -0.6896
vn 0.0256 -0.5698 -0.8213
vn -0.0237 -0.2979 -0.9543
vn 0.0265 -0.0910 -0.9955
vn -0.0204 0.2016 -0.9792
vn 0.0223 0.5072 -0.8615
vn -0.0019 0.6525 -0.7577
vn 0.0119 0.9070 -0.4209
vn -0.0012 1.0000 -0.0010
vn 0.0035 0.9174 0.3980
vn 0.0000 1.0000 0.0000
vn -0.0040 0.6218 0.7831
vn 0.0093 0.6470 0.7624
vn -0.0104 0.1646 0.9863
vn 0.0092 0.2116 0.9773
vn 0.0033 -0.3521 0.9359
vn -0.0064 -0.2877 0.9577
vn -0.0009 -0.7223 0.6916
vn -0.0083 -0.9551 0.2961
vn 0.0043 -0.9447 0.3279
vn -0.0029 -1.0000 0.0023
vn -0.0027 -1.0000 0.0020
vn 0.0031 -0.9566 -0.2913
vn -0.0069 -0.9463 -0.3233
vn 0.0165 -0.7716 -0.6359
vn -0.0077 -0.7179 -0.6961
vn 0.0107 -0.3585 -0.9334
vn -0.0157 -0.2949 -0.9554
vn 0.0067 0.1649 -0.9863
vn -0.0083 0.2108 -0.9775
vn 0.0085 0.6256 -0.7801
vn -0.0027 0.6503 -0.7596
vn 0.0034 0.9163 -0.4003
vn 0.0000 0.9186 -0.3952
vn -0.0035 0.9174 -0.3980
vn 0.0000 0.9152 -0.4029
vn 0.0027 0.6437 -0.7652
vn -0.0013 0.6572 -0.7537
vn 0.0002 0.2956 -0.9553
vn 0.0029 0.2790 -0.9603
vn -0.0031 -0.1093 -0.9940
vn 0.0000 -0.1155 -0.9933
vn 0.0000 -0.4791 -0.8777
vn 0.0029 -0.4847 -0.8747
vn -0.0031 -0.7711 -0.6366
vn 0.0025 -0.7857 -0.6186
vn -0.0031 -0.9540 -0.2997
vn 0.0000 -0.9559 -0.2938
vn 0.0000 -0.9532 0.3021
vn -0.0033 -0.9550 0.2964
vn 0.0032 -0.7711 0.6367
vn -0.0038 -0.7860 0.6182
vn 0.0031 -0.4813 0.8765
vn 0.0000 -0.4868 0.8735
vn 0.0000 -0.1067 0.9943
vn -0.0033 -0.1127 0.9936
vn 0.0032 0.2932 0.9561
vn -0.0006 0.2763 0.9611
vn -0.0004 0.6416 0.7671
vn 0.0024 0.6548 0.7557
vn -0.0034 0.9164 0.4003
vn 0.0118 0.9252 0.3792
vn 0.0016 1.0000 0.0013
vn -0.0082 0.9501 0.3118
vn -0.0119 0.7597 0.6501
vn 0.0249 0.6406 0.7674
vn -0.0113 0.3810 0.9245
vn -0.0120 -0.1049 0.9944
vn 0.0000 -0.0875 0.9962
vn 0.0000 -0.4915 0.8708
vn -0.0052 -0.4993 0.8664
vn 0.0038 -0.8135 0.5815
vn -0.0052 -0.8347 0.5506
vn 0.0049 -0.9729 0.2313
vn 0.0000 -0.9752 0.2211
vn 0.0000 -0.9719 -0.2352
vn 0.0053 -0.9742 -0.2255
vn -0.0068 -0.8129 -0.5823
vn 0.0054 -0.8349 -0.5503
vn -0.0055 -0.4957 -0.8685
vn 0.0000 -0.5031 -0.8642
vn -0.0101 -0.0957 -0.9953
vn 0.0089 0.2631 -0.9647
vn -0.0188 0.3879 -0.9215
vn 0.0249 0.6406 -0.7674
vn -0.0119 0.7597 -0.6501
vn 0.0130 0.9248 -0.3802
vn -0.0100 0.9497 -0.3130
vn 0.0014 1.0000 0.0011
vn -0.0022 -0.6229 -0.7823
vn 0.0035 0.9076 -0.4198
vn 0.0000 0.9152 0.4029
vn 0.0059 -0.7766 0.6299
vn 0.0000 0.9186 0.3952
vn -0.0067 0.2521 0.9677
s 1
f 183//1 150//2 195//3
f 150//2 194//4 195//3
f 149//5 43//6 194//4
f 152//7 44//8 43//6
f 290//9 45//10 44//8
f 155//11 46//12 45//10
f 155//11 47//13 46//12
f 47//13 163//14 48//15
f 163//14 187//16 48//15
f 162//17 186//18 187//16
f 165//19 185//20 186//18
f 289//21 184//22 185//20
f 288//23 182//24 184//22
f 17//25 9//25 3//25
f 27//26 183//1 182//24
f 12//27 20//27 26//27
f 39//28 196//29 209//30
f 38//31 209//30 208//32
f 38//31 208//32 207//33
f 37//34 207//33 206//35
f 36//36 206//35 205//37
f 175//38 205//37 204//39
f 176//40 204//39 203//41
f 202//42 176//40 203//41
f 33//43 202//42 201//44
f 32//45 201//44 200//46
f 31//47 200//46 199//48
f 30//49 199//48 198//50
f 197//51 30//49 198//50
f 171//52 197//51 196//29
f 174//27 260//27 173//27
f 192//25 284//25 193//25
f 173//27 259//27 172//27
f 28//27 271//27 181//27
f 172//27 259//27 258//27
f 190//25 282//25 191//25
f 172//27 258//27 170//27
f 181//27 271//27 270//27
f 170//27 258//27 256//27
f 181//27 270//27 180//27
f 189//25 281//25 190//25
f 188//25 280//25 189//25
f 28//27 256//27 257//27
f 188//25 132//25 279//25
f 49//25 132//25 188//25
f 179//27 118//27 268//27
f 73//27 104//27 249//27
f 55//25 225//25 54//25
f 66//25 238//25 65//25
f 73//27 248//27 74//27
f 75//27 248//27 247//27
f 54//25 224//25 67//25
f 64//25 238//25 237//25
f 215//27 247//27 246//27
f 64//25 236//25 63//25
f 77//27 246//27 245//27
f 63//25 235//25 62//25
f 62//25 235//25 234//25
f 77//27 244//27 78//27
f 78//27 244//27 243//27
f 62//25 92//25 61//25
f 168//53 211//54 146//54
f 212//55 168//53 167//56
f 213//57 167//56 166//58
f 214//59 166//58 164//60
f 214//59 164//60 161//61
f 216//62 161//61 160//63
f 217//64 160//63 158//65
f 218//66 158//65 157//67
f 219//68 157//67 154//69
f 220//70 154//69 153//71
f 221//72 153//71 151//73
f 222//74 151//73 148//75
f 223//76 148//75 147//77
f 146//54 223//76 147//77
f 241//54 84//78 255//79
f 84//78 254//80 255//79
f 85//81 253//82 254//80
f 86//83 252//84 253//82
f 228//85 251//86 252//84
f 229//87 250//88 251//86
f 89//89 105//90 250//88
f 231//91 106//41 105//90
f 232//41 107//92 106//41
f 233//93 108//94 107//92
f 93//95 109//96 108//94
f 94//97 110//98 109//96
f 95//99 111//100 110//98
f 96//101 242//102 111//100
f 97//103 240//104 242//102
f 240//104 83//54 241//54
f 67//25 239//25 66//25
f 55//25 227//25 226//25
f 71//27 104//27 72//27
f 57//25 87//25 56//25
f 70//27 101//27 102//27
f 58//25 230//25 88//25
f 69//27 101//27 70//27
f 81//27 113//27 82//27
f 59//25 230//25 58//25
f 68//27 100//27 69//27
f 79//27 113//27 80//27
f 60//25 90//25 59//25
f 61//25 91//25 60//25
f 68//27 82//27 99//27
f 78//27 112//27 79//27
f 272//105 144//106 143//107
f 272//105 143//107 141//108
f 274//109 141//108 139//110
f 276//111 139//110 137//112
f 277//113 137//112 261//114
f 278//115 261//114 262//116
f 130//117 262//116 263//118
f 128//41 263//118 264//41
f 126//119 264//41 265//120
f 124//121 265//120 266//122
f 122//123 266//122 267//124
f 120//85 267//124 121//125
f 285//126 121//125 269//127
f 286//128 269//127 116//129
f 287//130 116//129 115//131
f 273//132 115//131 144//106
f 42//25 119//25 117//25
f 40//25 142//25 53//25
f 41//25 117//25 114//25
f 53//25 140//25 52//25
f 35//27 129//27 131//27
f 177//27 129//27 34//27
f 40//25 114//25 145//25
f 52//25 138//25 51//25
f 178//27 125//27 177//27
f 51//25 136//25 50//25
f 50//25 134//25 49//25
f 179//27 123//27 178//27
f 150//2 149//5 194//4
f 149//5 152//7 43//6
f 152//7 290//9 44//8
f 290//9 156//133 45//10
f 156//133 155//11 45//10
f 155//11 159//41 47//13
f 47//13 159//41 163//14
f 163//14 162//17 187//16
f 162//17 165//19 186//18
f 165//19 289//21 185//20
f 289//21 288//23 184//22
f 288//23 27//26 182//24
f 15//25 13//25 17//25
f 13//25 11//25 9//25
f 169//25 25//25 3//25
f 25//25 23//25 3//25
f 21//25 19//25 17//25
f 7//25 5//25 3//25
f 23//25 21//25 17//25
f 17//25 13//25 9//25
f 9//25 7//25 3//25
f 3//25 23//25 17//25
f 27//26 150//2 183//1
f 26//27 1//27 2//27
f 4//27 6//27 2//27
f 8//27 10//27 6//27
f 12//27 14//27 16//27
f 16//27 18//27 12//27
f 20//27 22//27 26//27
f 22//27 24//27 26//27
f 26//27 2//27 6//27
f 6//27 10//27 26//27
f 10//27 12//27 26//27
f 12//27 18//27 20//27
f 39//28 171//52 196//29
f 38//31 39//28 209//30
f 37//34 38//31 207//33
f 36//36 37//34 206//35
f 205//37 175//38 36//36
f 176//40 175//38 204//39
f 202//42 33//43 176//40
f 201//44 32//45 33//43
f 31//47 32//45 200//46
f 30//49 31//47 199//48
f 197//51 29//134 30//49
f 171//52 29//134 197//51
f 193//25 284//25 119//25
f 174//27 135//27 260//27
f 192//25 283//25 284//25
f 173//27 260//27 259//27
f 192//25 191//25 283//25
f 191//25 282//25 283//25
f 28//27 257//27 271//27
f 190//25 281//25 282//25
f 189//25 280//25 281//25
f 180//27 270//27 118//27
f 188//25 279//25 280//25
f 28//27 170//27 256//27
f 179//27 180//27 118//27
f 73//27 72//27 104//27
f 55//25 226//25 225//25
f 66//25 239//25 238//25
f 73//27 249//27 248//27
f 75//27 74//27 248//27
f 54//25 225//25 224//25
f 64//25 65//25 238//25
f 215//27 75//27 247//27
f 64//25 237//25 236//25
f 77//27 215//27 246//27
f 63//25 236//25 235//25
f 77//27 245//27 244//27
f 62//25 234//25 92//25
f 168//53 210//135 211//54
f 212//55 210//135 168//53
f 213//57 212//55 167//56
f 214//59 213//57 166//58
f 76//136 214//59 161//61
f 216//62 76//136 161//61
f 217//64 216//62 160//63
f 218//66 217//64 158//65
f 219//68 218//66 157//67
f 220//70 219//68 154//69
f 221//72 220//70 153//71
f 222//74 221//72 151//73
f 223//76 222//74 148//75
f 146//54 211//54 223//76
f 241//54 83//54 84//78
f 84//78 85//81 254//80
f 85//81 86//83 253//82
f 86//83 228//85 252//84
f 228//85 229//87 251//86
f 229//87 89//89 250//88
f 89//89 231//91 105//90
f 231//91 232//41 106//41
f 232//41 233//93 107//92
f 233//93 93//95 108//94
f 93//95 94//97 109//96
f 94//97 95//99 110//98
f 95//99 96//101 111//100
f 96//101 97//103 242//102
f 97//103 98//137 240//104
f 240//104 98//137 83//54
f 67//25 224//25 239//25
f 55//25 56//25 227//25
f 71//27 103//27 104//27
f 56//25 87//25 227//25
f 71//27 102//27 103//27
f 71//27 70//27 102//27
f 57//25 88//25 87//25
f 57//25 58//25 88//25
f 69//27 100//27 101//27
f 81//27 80//27 113//27
f 59//25 90//25 230//25
f 68//27 99//27 100//27
f 79//27 112//27 113//27
f 60//25 91//25 90//25
f 61//25 92//25 91//25
f 68//27 81//27 82//27
f 78//27 243//27 112//27
f 272//105 273//132 144//106
f 274//109 272//105 141//108
f 275//138 274//109 139//110
f 276//111 275//138 139//110
f 277//113 276//111 137//112
f 278//115 277//113 261//114
f 130//117 278//115 262//116
f 128//41 130//117 263//118
f 126//119 128//41 264//41
f 124//121 126//119 265//120
f 122//123 124//121 266//122
f 120//85 122//123 267//124
f 285//126 120//85 121//125
f 286//128 285//126 269//127
f 287//130 286//128 116//129
f 273//132 287//130 115//131
f 174//27 133//27 135//27
f 42//25 193//25 119//25
f 40//25 145//25 142//25
f 174//27 35//27 133//27
f 41//25 42//25 117//25
f 35//27 131//27 133//27
f 53//25 142//25 140//25
f 35//27 34//27 129//27
f 177//27 127//27 129//27
f 40//25 41//25 114//25
f 52//25 140//25 138//25
f 177//27 125//27 127//27
f 51//25 138//25 136//25
f 178//27 123//27 125//27
f 50//25 136//25 134//25
f 179//27 268//27 123//27
f 49//25 134//25 132//25
