# Blender v2.81 (sub 16) OBJ File: 'experimental rigs.blend'
# www.blender.org
v -0.003088 -0.011484 -0.070924
v -0.000034 -0.011886 -0.070924
v -0.000034 -0.011886 -0.053224
v 0.003020 -0.011484 -0.071191
v 0.003020 -0.011484 -0.053224
v 0.005866 -0.010306 -0.071440
v 0.005866 -0.010306 -0.053224
v 0.008310 -0.008431 -0.053224
v 0.008310 -0.008431 -0.071654
v 0.009328 -0.007270 -0.071743
v 0.010185 -0.005987 -0.053224
v 0.010185 -0.005987 -0.071818
v 0.010868 -0.004603 -0.071878
v 0.011364 -0.003141 -0.053224
v 0.011364 -0.003141 -0.071921
v 0.011665 -0.001627 -0.071948
v 0.011766 -0.000087 -0.053224
v 0.011766 -0.000087 -0.071956
v 0.011665 0.001454 -0.071948
v 0.011364 0.002967 -0.053224
v 0.011364 0.002967 -0.071921
v 0.010868 0.004429 -0.071878
v 0.010185 0.005813 -0.053224
v 0.010185 0.005813 -0.071818
v 0.009328 0.007096 -0.071743
v 0.008310 0.008258 -0.053224
v 0.008310 0.008258 -0.071654
v 0.005866 0.010132 -0.053224
v 0.005866 0.010132 -0.071440
v 0.003020 0.011311 -0.071191
v 0.003020 0.011311 -0.053224
v -0.000034 0.011713 -0.070924
v -0.000034 0.011713 -0.053224
v -0.003088 0.011311 -0.053224
v -0.003088 0.011311 -0.070924
v -0.005934 0.010132 -0.070924
v -0.005934 0.010132 -0.053224
v -0.008378 0.008258 -0.070924
v -0.008378 0.008258 -0.053224
v -0.010253 0.005813 -0.070924
v -0.010253 0.005813 -0.053224
v -0.011432 0.002967 -0.053224
v -0.011432 0.002967 -0.070924
v -0.011834 -0.000087 -0.070924
v -0.011834 -0.000087 -0.053224
v -0.011432 -0.003141 -0.070924
v -0.011432 -0.003141 -0.053224
v -0.010253 -0.005987 -0.053224
v -0.010253 -0.005987 -0.070924
v -0.008378 -0.008431 -0.070924
v -0.008378 -0.008431 -0.053224
v -0.005934 -0.010306 -0.070924
v -0.005934 -0.010306 -0.053224
v -0.003088 -0.011484 -0.053224
v -0.000034 -0.011886 -0.070924
v -0.003088 -0.011484 -0.070924
v -0.013084 -0.011886 -0.070924
v -0.005934 -0.010306 -0.070924
v -0.008378 -0.008431 -0.070924
v -0.010253 -0.005987 -0.070924
v -0.011432 -0.003141 -0.070924
v -0.011834 -0.000087 -0.070924
v -0.013084 0.011713 -0.070924
v -0.011432 0.002967 -0.070924
v -0.010253 0.005813 -0.070924
v -0.008378 0.008258 -0.070924
v -0.005934 0.010132 -0.070924
v -0.003088 0.011311 -0.070924
v -0.000034 0.011713 -0.070924
v -0.000034 0.011713 -0.070924
v 0.003020 0.011311 -0.071191
v 0.061570 0.011713 -0.076314
v 0.005866 0.010132 -0.071440
v 0.008310 0.008258 -0.071654
v 0.009328 0.007096 -0.071743
v 0.010185 0.005813 -0.071818
v 0.010868 0.004429 -0.071878
v 0.011364 0.002967 -0.071921
v 0.011665 0.001454 -0.071948
v 0.011766 -0.000087 -0.071956
v 0.061570 -0.011886 -0.076314
v 0.011665 -0.001627 -0.071948
v 0.011364 -0.003141 -0.071921
v 0.010868 -0.004603 -0.071878
v 0.010185 -0.005987 -0.071818
v 0.009328 -0.007270 -0.071743
v 0.008310 -0.008431 -0.071654
v 0.005866 -0.010306 -0.071440
v 0.003020 -0.011484 -0.071191
v -0.000034 -0.011886 -0.070924
v 0.061570 -0.011886 -0.076314
v 0.052166 -0.011886 -0.094524
v 0.061570 0.011713 -0.076314
v 0.052166 0.011713 -0.094524
v -0.015133 -0.011886 -0.082545
v -0.013084 -0.011886 -0.070924
v -0.015133 0.011713 -0.082545
v -0.013084 0.011713 -0.070924
v -0.008734 -0.011886 -0.094524
v -0.008734 0.011713 -0.094524
v -0.078334 -0.011886 -0.100613
v -0.078334 0.011713 -0.100613
v -0.078334 -0.011886 -0.100613
v -0.081138 -0.011886 -0.088319
v -0.078334 0.011713 -0.100613
v -0.081138 0.011713 -0.088319
v -0.081138 -0.011886 -0.088319
v -0.015133 -0.011886 -0.082545
v -0.081138 0.011713 -0.088319
v -0.015133 0.011713 -0.082545
v -0.013084 -0.011886 -0.070924
v -0.015133 -0.011886 -0.082545
v -0.000034 -0.011886 -0.070924
v -0.008734 -0.011886 -0.094524
v 0.052166 -0.011886 -0.094524
v -0.081138 -0.011886 -0.088319
v -0.078334 -0.011886 -0.100613
v 0.061570 -0.011886 -0.076314
v -0.081138 0.011713 -0.088319
v -0.015133 0.011713 -0.082545
v -0.078334 0.011713 -0.100613
v -0.008734 0.011713 -0.094524
v -0.013084 0.011713 -0.070924
v -0.000034 0.011713 -0.070924
v 0.061570 0.011713 -0.076314
v 0.052166 0.011713 -0.094524
vn -0.2588 -0.9659 0.0000
vn -0.0000 -1.0000 -0.0000
vn 0.2590 -0.9659 -0.0000
vn 0.2588 -0.9659 0.0000
vn 0.5000 -0.8660 0.0000
vn 0.7071 -0.7071 0.0000
vn 0.7931 -0.6091 -0.0000
vn 0.8660 -0.5000 0.0000
vn 0.9238 -0.3829 0.0000
vn 0.9659 -0.2590 0.0000
vn 0.9659 -0.2588 0.0000
vn 0.9915 -0.1305 0.0002
vn 1.0000 0.0000 -0.0000
vn 0.9914 0.1311 0.0000
vn 0.9659 0.2590 0.0000
vn 0.9659 0.2589 0.0000
vn 0.9238 0.3829 0.0000
vn 0.8660 0.5000 0.0000
vn 0.7932 0.6090 -0.0000
vn 0.7071 0.7071 -0.0000
vn 0.4999 0.8661 0.0000
vn 0.5000 0.8660 0.0000
vn 0.2590 0.9659 -0.0000
vn 0.2588 0.9659 0.0000
vn -0.0000 1.0000 0.0000
vn -0.2588 0.9659 0.0000
vn -0.4999 0.8661 0.0000
vn -0.7071 0.7071 0.0000
vn -0.8660 0.5000 0.0000
vn -0.9659 0.2588 0.0000
vn -1.0000 0.0000 0.0000
vn -0.9659 -0.2588 0.0000
vn -0.8660 -0.5000 0.0000
vn -0.7071 -0.7071 0.0000
vn -0.5000 -0.8660 0.0000
vn 0.0000 0.0000 1.0000
vn 0.0872 0.0005 0.9962
vn 0.0871 0.0010 0.9962
vn 0.0872 0.0000 0.9962
vn 0.0868 -0.0000 0.9962
vn 0.0866 -0.0000 0.9962
vn 0.0867 -0.0002 0.9962
vn 0.0872 -0.0001 0.9962
vn 0.0871 0.0001 0.9962
vn 0.0871 -0.0000 0.9962
vn 0.0867 0.0000 0.9962
vn 0.0871 -0.0001 0.9962
vn 0.0872 0.0001 0.9962
vn 0.0868 0.0002 0.9962
vn 0.0872 -0.0005 0.9962
vn 0.8885 0.0000 -0.4588
vn -0.9847 0.0000 0.1743
vn -0.9848 -0.0000 0.1736
vn 0.0000 0.0000 -1.0000
vn 0.0868 -0.0000 -0.9962
vn 0.0872 0.0000 -0.9962
vn 0.0867 -0.0000 -0.9962
vn -0.9750 0.0000 -0.2224
vn -0.0868 0.0000 0.9962
vn -0.0871 0.0000 0.9962
vn -0.0867 -0.0000 0.9962
vn -0.0029 0.0007 1.0000
vn -0.0043 0.0025 1.0000
vn -0.0048 -0.0014 1.0000
vn -0.0048 0.0014 1.0000
vn -0.0050 -0.0000 1.0000
vn -0.0043 -0.0025 1.0000
vn -0.0029 -0.0007 1.0000
s 1
f 1//1 2//2 3//2
f 3//2 2//2 4//3
f 3//2 4//3 5//4
f 5//4 4//3 6//5
f 5//4 6//5 7//5
f 7//5 6//5 8//6
f 6//5 9//6 8//6
f 8//6 9//6 10//7
f 8//6 10//7 11//8
f 11//8 10//7 12//8
f 11//8 12//8 13//9
f 11//8 13//9 14//10
f 14//10 13//9 15//11
f 14//10 15//11 16//12
f 14//10 16//12 17//13
f 17//13 16//12 18//13
f 17//13 18//13 19//14
f 17//13 19//14 20//15
f 20//15 19//14 21//16
f 20//15 21//16 22//17
f 20//15 22//17 23//18
f 23//18 22//17 24//18
f 23//18 24//18 25//19
f 23//18 25//19 26//20
f 26//20 25//19 27//20
f 26//20 27//20 28//21
f 28//21 27//20 29//22
f 28//21 29//22 30//23
f 28//21 30//23 31//24
f 31//24 30//23 32//25
f 31//24 32//25 33//25
f 33//25 32//25 34//26
f 32//25 35//26 34//26
f 34//26 35//26 36//27
f 34//26 36//27 37//27
f 37//27 36//27 38//28
f 37//27 38//28 39//28
f 39//28 38//28 40//29
f 39//28 40//29 41//29
f 41//29 40//29 42//30
f 40//29 43//30 42//30
f 42//30 43//30 44//31
f 42//30 44//31 45//31
f 45//31 44//31 46//32
f 45//31 46//32 47//32
f 47//32 46//32 48//33
f 46//32 49//33 48//33
f 48//33 49//33 50//34
f 48//33 50//34 51//34
f 51//34 50//34 52//35
f 51//34 52//35 53//35
f 53//35 52//35 1//1
f 53//35 1//1 54//1
f 54//1 1//1 3//2
f 55//36 56//36 57//36
f 57//36 56//36 58//36
f 57//36 58//36 59//36
f 59//36 60//36 57//36
f 57//36 60//36 61//36
f 57//36 61//36 62//36
f 57//36 62//36 63//36
f 63//36 62//36 64//36
f 63//36 64//36 65//36
f 65//36 66//36 63//36
f 63//36 66//36 67//36
f 63//36 67//36 68//36
f 68//36 69//36 63//36
f 70//37 71//38 72//39
f 72//39 71//38 73//40
f 72//39 73//40 74//41
f 74//41 75//42 72//39
f 72//39 75//42 76//43
f 72//39 76//43 77//39
f 77//39 78//43 72//39
f 72//39 78//43 79//44
f 72//39 79//44 80//45
f 72//39 80//45 81//46
f 81//46 80//45 82//47
f 81//46 82//47 83//48
f 83//48 84//39 81//46
f 81//46 84//39 85//48
f 81//46 85//48 86//49
f 86//49 87//40 81//46
f 81//46 87//40 88//46
f 81//46 88//46 89//50
f 89//50 90//50 81//46
f 91//51 92//51 93//51
f 93//51 92//51 94//51
f 95//52 96//53 97//53
f 97//53 96//53 98//53
f 92//54 99//54 94//54
f 94//54 99//54 100//54
f 99//55 101//56 100//56
f 100//56 101//56 102//57
f 103//58 104//58 105//58
f 105//58 104//58 106//58
f 107//59 108//60 109//60
f 109//60 108//60 110//61
f 111//2 112//2 113//2
f 113//2 112//2 114//2
f 113//2 114//2 115//2
f 116//2 117//2 112//2
f 112//2 117//2 114//2
f 115//2 118//2 113//2
f 119//25 120//25 121//25
f 121//25 120//25 122//25
f 123//25 124//25 120//25
f 120//25 124//25 122//25
f 125//25 126//25 124//25
f 124//25 126//25 122//25
f 39//36 47//36 54//36
f 54//36 3//36 5//36
f 5//36 7//36 8//62
f 8//62 11//63 20//64
f 11//63 14//65 20//64
f 14//65 17//66 20//64
f 20//64 23//67 31//36
f 23//67 26//68 31//36
f 26//68 28//36 31//36
f 31//36 33//36 34//36
f 34//36 37//36 31//36
f 37//36 39//36 31//36
f 39//36 41//36 47//36
f 41//36 42//36 47//36
f 42//36 45//36 47//36
f 47//36 48//36 54//36
f 48//36 51//36 54//36
f 51//36 53//36 54//36
f 54//36 5//36 20//64
f 5//36 8//62 20//64
f 20//64 31//36 54//36
f 31//36 39//36 54//36
