# Blender v2.93.6 OBJ File: 'GIRONA1000.blend'
# www.blender.org
v 0.000000 0.042299 -0.000000
v 0.000000 0.041486 -0.008252
v 0.000000 0.039079 -0.016187
v 0.000000 0.035170 -0.023500
v 0.000000 0.029910 -0.029910
v 0.000000 0.023500 -0.035170
v 0.000000 0.016187 -0.039079
v 0.000000 0.008252 -0.041486
v 0.016187 0.039079 -0.000000
v 0.015876 0.038328 -0.008252
v 0.014955 0.036104 -0.016187
v 0.013459 0.032493 -0.023500
v 0.011446 0.027633 -0.029910
v 0.008993 0.021711 -0.035170
v 0.006195 0.014955 -0.039079
v 0.003158 0.007624 -0.041486
v 0.029910 0.029910 -0.000000
v 0.029335 0.029335 -0.008252
v 0.027633 0.027633 -0.016187
v 0.024869 0.024869 -0.023500
v 0.021149 0.021149 -0.029910
v 0.016617 0.016617 -0.035170
v 0.011446 0.011446 -0.039079
v 0.005835 0.005835 -0.041486
v 0.039079 0.016187 -0.000000
v 0.038328 0.015876 -0.008252
v 0.036104 0.014955 -0.016187
v 0.032493 0.013459 -0.023500
v 0.027633 0.011446 -0.029910
v 0.021711 0.008993 -0.035170
v 0.014955 0.006195 -0.039079
v 0.007624 0.003158 -0.041486
v 0.042299 -0.000000 -0.000000
v 0.041486 -0.000000 -0.008252
v 0.039079 -0.000000 -0.016187
v 0.035170 -0.000000 -0.023500
v 0.029910 -0.000000 -0.029910
v 0.023500 -0.000000 -0.035170
v 0.016187 -0.000000 -0.039079
v 0.008252 -0.000000 -0.041486
v 0.039079 -0.016187 -0.000000
v 0.038328 -0.015876 -0.008252
v 0.036104 -0.014955 -0.016187
v 0.032493 -0.013459 -0.023500
v 0.027633 -0.011446 -0.029910
v 0.021711 -0.008993 -0.035170
v 0.014955 -0.006195 -0.039079
v 0.007624 -0.003158 -0.041486
v 0.029910 -0.029910 -0.000000
v 0.029335 -0.029335 -0.008252
v 0.027633 -0.027633 -0.016187
v 0.024869 -0.024869 -0.023500
v 0.021149 -0.021149 -0.029910
v 0.016617 -0.016617 -0.035170
v 0.011446 -0.011446 -0.039079
v 0.005835 -0.005835 -0.041486
v 0.016187 -0.039079 -0.000000
v 0.015876 -0.038328 -0.008252
v 0.014955 -0.036104 -0.016187
v 0.013459 -0.032493 -0.023500
v 0.011446 -0.027633 -0.029910
v 0.008993 -0.021711 -0.035170
v 0.006195 -0.014955 -0.039079
v 0.003158 -0.007624 -0.041486
v -0.000000 -0.042299 -0.000000
v -0.000000 -0.041486 -0.008252
v -0.000000 -0.039079 -0.016187
v -0.000000 -0.035170 -0.023500
v -0.000000 -0.029910 -0.029910
v -0.000000 -0.023500 -0.035170
v -0.000000 -0.016187 -0.039079
v -0.000000 -0.008252 -0.041486
v 0.000000 -0.000000 -0.042299
v -0.016187 -0.039079 -0.000000
v -0.015876 -0.038328 -0.008252
v -0.014955 -0.036104 -0.016187
v -0.013459 -0.032493 -0.023500
v -0.011446 -0.027633 -0.029910
v -0.008993 -0.021711 -0.035170
v -0.006195 -0.014955 -0.039079
v -0.003158 -0.007624 -0.041486
v -0.029910 -0.029910 -0.000000
v -0.029335 -0.029335 -0.008252
v -0.027633 -0.027633 -0.016187
v -0.024869 -0.024869 -0.023500
v -0.021149 -0.021149 -0.029910
v -0.016617 -0.016617 -0.035170
v -0.011446 -0.011446 -0.039079
v -0.005835 -0.005835 -0.041486
v -0.039079 -0.016187 -0.000000
v -0.038328 -0.015876 -0.008252
v -0.036104 -0.014955 -0.016187
v -0.032493 -0.013459 -0.023500
v -0.027633 -0.011446 -0.029910
v -0.021711 -0.008993 -0.035170
v -0.014955 -0.006195 -0.039079
v -0.007624 -0.003158 -0.041486
v -0.042299 0.000000 -0.000000
v -0.041486 0.000000 -0.008252
v -0.039079 0.000000 -0.016187
v -0.035170 0.000000 -0.023500
v -0.029910 0.000000 -0.029910
v -0.023500 0.000000 -0.035170
v -0.016187 0.000000 -0.039079
v -0.008252 0.000000 -0.041486
v -0.039079 0.016187 -0.000000
v -0.038328 0.015876 -0.008252
v -0.036104 0.014955 -0.016187
v -0.032493 0.013459 -0.023500
v -0.027633 0.011446 -0.029910
v -0.021711 0.008993 -0.035170
v -0.014955 0.006195 -0.039079
v -0.007624 0.003158 -0.041486
v -0.016187 0.039079 0.025505
v -0.029910 0.029910 0.025505
v -0.039079 0.016187 0.025505
v -0.042299 0.000000 0.025505
v -0.039079 -0.016187 0.025505
v -0.029910 -0.029910 0.025505
v -0.016187 -0.039079 0.025505
v -0.029910 0.029910 -0.000000
v -0.029335 0.029335 -0.008252
v -0.027633 0.027633 -0.016187
v -0.024869 0.024869 -0.023500
v -0.021149 0.021149 -0.029910
v -0.016617 0.016617 -0.035170
v -0.011446 0.011446 -0.039079
v -0.005835 0.005835 -0.041486
v -0.000000 -0.042299 0.025505
v 0.016187 -0.039079 0.025505
v 0.029910 -0.029910 0.025505
v 0.039079 -0.016187 0.025505
v 0.042299 -0.000000 0.025505
v 0.039079 0.016187 0.025505
v 0.029910 0.029910 0.025505
v -0.016187 0.039079 -0.000000
v -0.015876 0.038328 -0.008252
v -0.014955 0.036104 -0.016187
v -0.013459 0.032493 -0.023500
v -0.011446 0.027633 -0.029910
v -0.008993 0.021711 -0.035170
v -0.006195 0.014955 -0.039079
v -0.003158 0.007624 -0.041486
v 0.016187 0.039079 0.025505
v 0.000000 0.042299 0.025505
vt 0.750000 0.187500
vt 0.687500 0.125000
vt 0.750000 0.125000
vt 0.750000 0.062500
vt 0.687500 0.062500
vt 0.718750 0.000000
vt 0.750000 0.500000
vt 0.687500 0.437500
vt 0.750000 0.437500
vt 0.687500 0.375000
vt 0.750000 0.375000
vt 0.687500 0.312500
vt 0.750000 0.312500
vt 0.687500 0.250000
vt 0.750000 0.250000
vt 0.687500 0.187500
vt 0.625000 0.250000
vt 0.625000 0.187500
vt 0.625000 0.125000
vt 0.625000 0.062500
vt 0.656250 0.000000
vt 0.687500 0.500000
vt 0.625000 0.437500
vt 0.625000 0.375000
vt 0.625000 0.312500
vt 0.562500 0.375000
vt 0.562500 0.312500
vt 0.562500 0.250000
vt 0.562500 0.187500
vt 0.562500 0.125000
vt 0.562500 0.062500
vt 0.593750 0.000000
vt 0.625000 0.500000
vt 0.562500 0.437500
vt 0.500000 0.125000
vt 0.500000 0.062500
vt 0.531250 0.000000
vt 0.562500 0.500000
vt 0.500000 0.437500
vt 0.500000 0.375000
vt 0.500000 0.312500
vt 0.500000 0.250000
vt 0.500000 0.187500
vt 0.437500 0.437500
vt 0.437500 0.375000
vt 0.437500 0.312500
vt 0.437500 0.250000
vt 0.437500 0.187500
vt 0.437500 0.125000
vt 0.437500 0.062500
vt 0.468750 0.000000
vt 0.500000 0.500000
vt 0.375000 0.187500
vt 0.375000 0.125000
vt 0.375000 0.062500
vt 0.406250 0.000000
vt 0.437500 0.500000
vt 0.375000 0.437500
vt 0.375000 0.375000
vt 0.375000 0.312500
vt 0.375000 0.250000
vt 0.312500 0.312500
vt 0.312500 0.250000
vt 0.312500 0.187500
vt 0.312500 0.125000
vt 0.312500 0.062500
vt 0.343750 0.000000
vt 0.375000 0.500000
vt 0.312500 0.437500
vt 0.312500 0.375000
vt 0.250000 0.125000
vt 0.250000 0.062500
vt 0.281250 0.000000
vt 0.312500 0.500000
vt 0.250000 0.437500
vt 0.250000 0.375000
vt 0.250000 0.312500
vt 0.250000 0.250000
vt 0.250000 0.187500
vt 0.187500 0.312500
vt 0.187500 0.250000
vt 0.187500 0.187500
vt 0.187500 0.125000
vt 0.187500 0.062500
vt 0.218750 0.000000
vt 0.250000 0.500000
vt 0.187500 0.437500
vt 0.187500 0.375000
vt 0.125000 0.062500
vt 0.156250 0.000000
vt 0.187500 0.500000
vt 0.125000 0.437500
vt 0.125000 0.375000
vt 0.125000 0.312500
vt 0.125000 0.250000
vt 0.125000 0.187500
vt 0.125000 0.125000
vt 0.062500 0.312500
vt 0.062500 0.250000
vt 0.062500 0.187500
vt 0.062500 0.125000
vt 0.062500 0.062500
vt 0.093750 0.000000
vt 0.125000 0.500000
vt 0.062500 0.437500
vt 0.062500 0.375000
vt 0.031250 0.000000
vt 0.000000 0.062500
vt 0.062500 0.500000
vt 0.000000 0.437500
vt 0.000000 0.375000
vt 0.000000 0.312500
vt 0.000000 0.250000
vt 0.000000 0.187500
vt 0.000000 0.125000
vt 1.000000 0.187500
vt 0.937500 0.250000
vt 0.937500 0.187500
vt 0.937500 0.125000
vt 1.000000 0.125000
vt 0.937500 0.062500
vt 1.000000 0.062500
vt 0.968750 0.000000
vt 1.000000 0.500000
vt 0.937500 0.437500
vt 1.000000 0.437500
vt 1.000000 0.375000
vt 0.937500 0.375000
vt 0.937500 0.312500
vt 1.000000 0.312500
vt 1.000000 0.250000
vt 0.937500 0.500000
vt 0.875000 0.437500
vt 0.875000 0.375000
vt 0.875000 0.312500
vt 0.875000 0.250000
vt 0.875000 0.187500
vt 0.875000 0.125000
vt 0.875000 0.062500
vt 0.562500 0.500000
vt 0.687500 0.500000
vt 0.187500 0.500000
vt 0.906250 0.000000
vt 0.812500 0.250000
vt 0.812500 0.187500
vt 0.625000 0.500000
vt 0.812500 0.125000
vt 0.000000 0.500000
vt 0.000000 0.500000
vt 0.812500 0.062500
vt 0.812500 0.500000
vt 0.750000 0.500000
vt 0.843750 0.000000
vt 0.875000 0.500000
vt 0.812500 0.437500
vt 0.062500 0.500000
vt 0.812500 0.375000
vt 0.125000 0.500000
vt 0.812500 0.312500
vt 0.500000 0.500000
vt 0.437500 0.500000
vt 0.937500 0.500000
vt 0.875000 0.500000
vt 0.375000 0.500000
vt 0.312500 0.500000
vt 0.250000 0.500000
vt 0.812500 0.500000
vt 0.781250 0.000000
vt 1.000000 0.500000
vn 0.0000 0.5639 -0.8258
vn 0.1504 0.3631 -0.9195
vn 0.0000 0.3930 -0.9195
vn 0.0000 0.2068 -0.9784
vn 0.0791 0.1910 -0.9784
vn 0.0000 0.0000 -1.0000
vn 0.0000 0.9988 -0.0488
vn 0.3755 0.9065 -0.1928
vn 0.0000 0.9812 -0.1928
vn 0.3542 0.8552 -0.3784
vn 0.0000 0.9256 -0.3784
vn 0.3196 0.7716 -0.5500
vn 0.0000 0.8351 -0.5500
vn 0.2729 0.6588 -0.7010
vn 0.0000 0.7131 -0.7010
vn 0.2158 0.5210 -0.8258
vn 0.5042 0.5042 -0.7010
vn 0.3987 0.3987 -0.8258
vn 0.2779 0.2779 -0.9195
vn 0.1462 0.1462 -0.9784
vn 0.3822 0.9228 -0.0488
vn 0.6938 0.6938 -0.1928
vn 0.6545 0.6545 -0.3784
vn 0.5905 0.5905 -0.5500
vn 0.8552 0.3542 -0.3784
vn 0.7716 0.3196 -0.5500
vn 0.6588 0.2729 -0.7010
vn 0.5210 0.2158 -0.8258
vn 0.3631 0.1504 -0.9195
vn 0.1910 0.0791 -0.9784
vn 0.7063 0.7063 -0.0488
vn 0.9065 0.3755 -0.1928
vn 0.3930 0.0000 -0.9195
vn 0.2068 0.0000 -0.9784
vn 0.9228 0.3822 -0.0488
vn 0.9812 0.0000 -0.1928
vn 0.9256 0.0000 -0.3784
vn 0.8351 0.0000 -0.5500
vn 0.7131 0.0000 -0.7010
vn 0.5639 0.0000 -0.8258
vn 0.9065 -0.3755 -0.1928
vn 0.8552 -0.3542 -0.3784
vn 0.7716 -0.3196 -0.5500
vn 0.6588 -0.2729 -0.7010
vn 0.5210 -0.2158 -0.8258
vn 0.3631 -0.1504 -0.9195
vn 0.1910 -0.0791 -0.9784
vn 0.9988 0.0000 -0.0488
vn 0.3987 -0.3987 -0.8258
vn 0.2779 -0.2779 -0.9195
vn 0.1462 -0.1462 -0.9784
vn 0.9228 -0.3822 -0.0488
vn 0.6938 -0.6938 -0.1928
vn 0.6545 -0.6545 -0.3784
vn 0.5905 -0.5905 -0.5500
vn 0.5042 -0.5042 -0.7010
vn 0.3196 -0.7716 -0.5500
vn 0.2729 -0.6588 -0.7010
vn 0.2158 -0.5210 -0.8258
vn 0.1504 -0.3631 -0.9195
vn 0.0791 -0.1910 -0.9784
vn 0.7063 -0.7063 -0.0488
vn 0.3755 -0.9065 -0.1928
vn 0.3542 -0.8552 -0.3784
vn 0.0000 -0.3930 -0.9195
vn 0.0000 -0.2068 -0.9784
vn 0.3822 -0.9228 -0.0488
vn 0.0000 -0.9812 -0.1928
vn 0.0000 -0.9256 -0.3784
vn 0.0000 -0.8351 -0.5500
vn 0.0000 -0.7131 -0.7010
vn 0.0000 -0.5639 -0.8258
vn -0.3196 -0.7716 -0.5500
vn -0.2729 -0.6588 -0.7010
vn -0.2158 -0.5210 -0.8258
vn -0.1504 -0.3631 -0.9195
vn -0.0791 -0.1910 -0.9784
vn 0.0000 -0.9988 -0.0488
vn -0.3755 -0.9065 -0.1928
vn -0.3542 -0.8552 -0.3784
vn -0.1462 -0.1462 -0.9784
vn -0.3822 -0.9228 -0.0488
vn -0.6938 -0.6938 -0.1928
vn -0.6545 -0.6545 -0.3784
vn -0.5905 -0.5905 -0.5500
vn -0.5042 -0.5042 -0.7010
vn -0.3987 -0.3987 -0.8258
vn -0.2779 -0.2779 -0.9195
vn -0.7716 -0.3196 -0.5500
vn -0.6588 -0.2729 -0.7010
vn -0.5210 -0.2158 -0.8258
vn -0.3631 -0.1504 -0.9195
vn -0.1910 -0.0791 -0.9784
vn -0.7063 -0.7063 -0.0488
vn -0.9065 -0.3755 -0.1928
vn -0.8552 -0.3542 -0.3784
vn -0.2068 0.0000 -0.9784
vn -0.9228 -0.3822 -0.0488
vn -0.9812 0.0000 -0.1928
vn -0.9256 0.0000 -0.3784
vn -0.8351 0.0000 -0.5500
vn -0.7131 0.0000 -0.7010
vn -0.5639 0.0000 -0.8258
vn -0.3930 0.0000 -0.9195
vn -0.6588 0.2729 -0.7010
vn -0.5210 0.2158 -0.8258
vn -0.3631 0.1504 -0.9195
vn -0.1910 0.0791 -0.9784
vn -0.9988 0.0000 -0.0488
vn -0.9065 0.3755 -0.1928
vn -0.8552 0.3542 -0.3784
vn -0.7716 0.3196 -0.5500
vn -0.9228 0.3822 -0.0488
vn -0.6938 0.6938 -0.1928
vn -0.6545 0.6545 -0.3784
vn -0.5905 0.5905 -0.5500
vn -0.5042 0.5042 -0.7010
vn -0.3987 0.3987 -0.8258
vn -0.2779 0.2779 -0.9195
vn -0.1462 0.1462 -0.9784
vn 0.6894 0.2855 0.6657
vn 0.2855 0.6894 0.6657
vn -0.2855 -0.6894 0.6657
vn -0.2729 0.6588 -0.7010
vn -0.2158 0.5210 -0.8258
vn 0.5276 0.5276 0.6657
vn -0.1504 0.3631 -0.9195
vn -0.7462 0.0000 0.6657
vn -0.0791 0.1910 -0.9784
vn -0.3822 0.9228 -0.0488
vn 0.0000 0.7462 0.6657
vn -0.7063 0.7063 -0.0488
vn -0.3755 0.9065 -0.1928
vn -0.6894 -0.2855 0.6657
vn -0.3542 0.8552 -0.3784
vn -0.5276 -0.5276 0.6657
vn -0.3196 0.7716 -0.5500
vn 0.7462 0.0000 0.6657
vn 0.6894 -0.2855 0.6657
vn -0.6894 0.2855 0.6657
vn -0.5276 0.5276 0.6657
vn 0.5276 -0.5276 0.6657
vn 0.2855 -0.6894 0.6657
vn 0.0000 -0.7462 0.6657
vn -0.2855 0.6894 0.6657
s 1
f 6/1/1 15/2/2 7/3/3
f 8/4/4 15/2/2 16/5/5
f 73/6/6 8/4/4 16/5/5
f 1/7/7 10/8/8 2/9/9
f 2/9/9 11/10/10 3/11/11
f 3/11/11 12/12/12 4/13/13
f 4/13/13 13/14/14 5/15/15
f 6/1/1 13/14/14 14/16/16
f 14/16/16 21/17/17 22/18/18
f 15/2/2 22/18/18 23/19/19
f 15/2/2 24/20/20 16/5/5
f 73/21/6 16/5/5 24/20/20
f 9/22/21 18/23/22 10/8/8
f 11/10/10 18/23/22 19/24/23
f 12/12/12 19/24/23 20/25/24
f 12/12/12 21/17/17 13/14/14
f 18/23/22 27/26/25 19/24/23
f 19/24/23 28/27/26 20/25/24
f 20/25/24 29/28/27 21/17/17
f 21/17/17 30/29/28 22/18/18
f 22/18/18 31/30/29 23/19/19
f 23/19/19 32/31/30 24/20/20
f 73/32/6 24/20/20 32/31/30
f 17/33/31 26/34/32 18/23/22
f 30/29/28 39/35/33 31/30/29
f 31/30/29 40/36/34 32/31/30
f 73/37/6 32/31/30 40/36/34
f 25/38/35 34/39/36 26/34/32
f 26/34/32 35/40/37 27/26/25
f 27/26/25 36/41/38 28/27/26
f 29/28/27 36/41/38 37/42/39
f 29/28/27 38/43/40 30/29/28
f 35/40/37 42/44/41 43/45/42
f 35/40/37 44/46/43 36/41/38
f 37/42/39 44/46/43 45/47/44
f 37/42/39 46/48/45 38/43/40
f 38/43/40 47/49/46 39/35/33
f 39/35/33 48/50/47 40/36/34
f 73/51/6 40/36/34 48/50/47
f 33/52/48 42/44/41 34/39/36
f 47/49/46 54/53/49 55/54/50
f 47/49/46 56/55/51 48/50/47
f 73/56/6 48/50/47 56/55/51
f 41/57/52 50/58/53 42/44/41
f 43/45/42 50/58/53 51/59/54
f 43/45/42 52/60/55 44/46/43
f 45/47/44 52/60/55 53/61/56
f 45/47/44 54/53/49 46/48/45
f 51/59/54 60/62/57 52/60/55
f 53/61/56 60/62/57 61/63/58
f 54/53/49 61/63/58 62/64/59
f 54/53/49 63/65/60 55/54/50
f 56/55/51 63/65/60 64/66/61
f 73/67/6 56/55/51 64/66/61
f 49/68/62 58/69/63 50/58/53
f 51/59/54 58/69/63 59/70/64
f 64/66/61 71/71/65 72/72/66
f 73/73/6 64/66/61 72/72/66
f 57/74/67 66/75/68 58/69/63
f 59/70/64 66/75/68 67/76/69
f 59/70/64 68/77/70 60/62/57
f 60/62/57 69/78/71 61/63/58
f 62/64/59 69/78/71 70/79/72
f 62/64/59 71/71/65 63/65/60
f 67/76/69 77/80/73 68/77/70
f 69/78/71 77/80/73 78/81/74
f 69/78/71 79/82/75 70/79/72
f 70/79/72 80/83/76 71/71/65
f 72/72/66 80/83/76 81/84/77
f 73/85/6 72/72/66 81/84/77
f 65/86/78 75/87/79 66/75/68
f 67/76/69 75/87/79 76/88/80
f 80/83/76 89/89/81 81/84/77
f 73/90/6 81/84/77 89/89/81
f 74/91/82 83/92/83 75/87/79
f 76/88/80 83/92/83 84/93/84
f 76/88/80 85/94/85 77/80/73
f 77/80/73 86/95/86 78/81/74
f 79/82/75 86/95/86 87/96/87
f 79/82/75 88/97/88 80/83/76
f 86/95/86 93/98/89 94/99/90
f 87/96/87 94/99/90 95/100/91
f 87/96/87 96/101/92 88/97/88
f 88/97/88 97/102/93 89/89/81
f 73/103/6 89/89/81 97/102/93
f 82/104/94 91/105/95 83/92/83
f 84/93/84 91/105/95 92/106/96
f 84/93/84 93/98/89 85/94/85
f 73/107/6 97/102/93 105/108/97
f 90/109/98 99/110/99 91/105/95
f 92/106/96 99/110/99 100/111/100
f 92/106/96 101/112/101 93/98/89
f 93/98/89 102/113/102 94/99/90
f 95/100/91 102/113/102 103/114/103
f 96/101/92 103/114/103 104/115/104
f 97/102/93 104/115/104 105/108/97
f 103/116/103 110/117/105 111/118/106
f 103/116/103 112/119/107 104/120/104
f 104/120/104 113/121/108 105/122/97
f 73/123/6 105/122/97 113/121/108
f 98/124/109 107/125/110 99/126/99
f 100/127/100 107/125/110 108/128/111
f 100/127/100 109/129/112 101/130/101
f 102/131/102 109/129/112 110/117/105
f 106/132/113 122/133/114 107/125/110
f 108/128/111 122/133/114 123/134/115
f 108/128/111 124/135/116 109/129/112
f 109/129/112 125/136/117 110/117/105
f 111/118/106 125/136/117 126/137/118
f 111/118/106 127/138/119 112/119/107
f 112/119/107 128/139/120 113/121/108
f 134/140/121 144/141/122 120/142/123
f 73/143/6 113/121/108 128/139/120
f 126/137/118 140/144/124 141/145/125
f 9/22/21 135/146/126 17/33/31
f 127/138/119 141/145/125 142/147/127
f 90/109/98 117/148/128 98/149/109
f 127/138/119 143/150/129 128/139/120
f 136/151/130 145/152/131 1/7/7
f 17/33/31 134/140/121 25/38/35
f 73/153/6 128/139/120 143/150/129
f 121/154/132 137/155/133 122/133/114
f 82/104/94 118/156/134 90/109/98
f 123/134/115 137/155/133 138/157/135
f 74/91/82 119/158/136 82/104/94
f 123/134/115 139/159/137 124/135/116
f 25/38/35 133/160/138 33/52/48
f 124/135/116 140/144/124 125/136/117
f 33/52/48 132/161/139 41/57/52
f 98/124/109 116/162/140 106/132/113
f 138/157/135 2/9/9 3/11/11
f 106/132/113 115/163/141 121/154/132
f 138/157/135 4/13/13 139/159/137
f 41/57/52 131/164/142 49/68/62
f 139/159/137 5/15/15 140/144/124
f 49/68/62 130/165/143 57/74/67
f 140/144/124 6/1/1 141/145/125
f 57/74/67 129/166/144 65/86/78
f 141/145/125 7/3/3 142/147/127
f 121/154/132 114/167/145 136/151/130
f 142/147/127 8/4/4 143/150/129
f 65/86/78 120/142/123 74/91/82
f 1/7/7 144/141/122 9/22/21
f 73/168/6 143/150/129 8/4/4
f 136/151/130 2/9/9 137/155/133
f 6/1/1 14/16/16 15/2/2
f 8/4/4 7/3/3 15/2/2
f 1/7/7 9/22/21 10/8/8
f 2/9/9 10/8/8 11/10/10
f 3/11/11 11/10/10 12/12/12
f 4/13/13 12/12/12 13/14/14
f 6/1/1 5/15/15 13/14/14
f 14/16/16 13/14/14 21/17/17
f 15/2/2 14/16/16 22/18/18
f 15/2/2 23/19/19 24/20/20
f 9/22/21 17/33/31 18/23/22
f 11/10/10 10/8/8 18/23/22
f 12/12/12 11/10/10 19/24/23
f 12/12/12 20/25/24 21/17/17
f 18/23/22 26/34/32 27/26/25
f 19/24/23 27/26/25 28/27/26
f 20/25/24 28/27/26 29/28/27
f 21/17/17 29/28/27 30/29/28
f 22/18/18 30/29/28 31/30/29
f 23/19/19 31/30/29 32/31/30
f 17/33/31 25/38/35 26/34/32
f 30/29/28 38/43/40 39/35/33
f 31/30/29 39/35/33 40/36/34
f 25/38/35 33/52/48 34/39/36
f 26/34/32 34/39/36 35/40/37
f 27/26/25 35/40/37 36/41/38
f 29/28/27 28/27/26 36/41/38
f 29/28/27 37/42/39 38/43/40
f 35/40/37 34/39/36 42/44/41
f 35/40/37 43/45/42 44/46/43
f 37/42/39 36/41/38 44/46/43
f 37/42/39 45/47/44 46/48/45
f 38/43/40 46/48/45 47/49/46
f 39/35/33 47/49/46 48/50/47
f 33/52/48 41/57/52 42/44/41
f 47/49/46 46/48/45 54/53/49
f 47/49/46 55/54/50 56/55/51
f 41/57/52 49/68/62 50/58/53
f 43/45/42 42/44/41 50/58/53
f 43/45/42 51/59/54 52/60/55
f 45/47/44 44/46/43 52/60/55
f 45/47/44 53/61/56 54/53/49
f 51/59/54 59/70/64 60/62/57
f 53/61/56 52/60/55 60/62/57
f 54/53/49 53/61/56 61/63/58
f 54/53/49 62/64/59 63/65/60
f 56/55/51 55/54/50 63/65/60
f 49/68/62 57/74/67 58/69/63
f 51/59/54 50/58/53 58/69/63
f 64/66/61 63/65/60 71/71/65
f 57/74/67 65/86/78 66/75/68
f 59/70/64 58/69/63 66/75/68
f 59/70/64 67/76/69 68/77/70
f 60/62/57 68/77/70 69/78/71
f 62/64/59 61/63/58 69/78/71
f 62/64/59 70/79/72 71/71/65
f 67/76/69 76/88/80 77/80/73
f 69/78/71 68/77/70 77/80/73
f 69/78/71 78/81/74 79/82/75
f 70/79/72 79/82/75 80/83/76
f 72/72/66 71/71/65 80/83/76
f 65/86/78 74/91/82 75/87/79
f 67/76/69 66/75/68 75/87/79
f 80/83/76 88/97/88 89/89/81
f 74/91/82 82/104/94 83/92/83
f 76/88/80 75/87/79 83/92/83
f 76/88/80 84/93/84 85/94/85
f 77/80/73 85/94/85 86/95/86
f 79/82/75 78/81/74 86/95/86
f 79/82/75 87/96/87 88/97/88
f 86/95/86 85/94/85 93/98/89
f 87/96/87 86/95/86 94/99/90
f 87/96/87 95/100/91 96/101/92
f 88/97/88 96/101/92 97/102/93
f 82/104/94 90/109/98 91/105/95
f 84/93/84 83/92/83 91/105/95
f 84/93/84 92/106/96 93/98/89
f 90/109/98 98/149/109 99/110/99
f 92/106/96 91/105/95 99/110/99
f 92/106/96 100/111/100 101/112/101
f 93/98/89 101/112/101 102/113/102
f 95/100/91 94/99/90 102/113/102
f 96/101/92 95/100/91 103/114/103
f 97/102/93 96/101/92 104/115/104
f 103/116/103 102/131/102 110/117/105
f 103/116/103 111/118/106 112/119/107
f 104/120/104 112/119/107 113/121/108
f 98/124/109 106/132/113 107/125/110
f 100/127/100 99/126/99 107/125/110
f 100/127/100 108/128/111 109/129/112
f 102/131/102 101/130/101 109/129/112
f 106/132/113 121/154/132 122/133/114
f 108/128/111 107/125/110 122/133/114
f 108/128/111 123/134/115 124/135/116
f 109/129/112 124/135/116 125/136/117
f 111/118/106 110/117/105 125/136/117
f 111/118/106 126/137/118 127/138/119
f 112/119/107 127/138/119 128/139/120
f 144/141/122 145/152/131 114/167/145
f 114/167/145 115/163/141 116/162/140
f 116/162/140 117/148/128 118/156/134
f 118/156/134 119/158/136 120/142/123
f 120/142/123 129/166/144 132/161/139
f 129/166/144 130/165/143 132/161/139
f 130/165/143 131/164/142 132/161/139
f 132/161/139 133/160/138 134/140/121
f 134/140/121 135/146/126 144/141/122
f 144/141/122 114/167/145 120/142/123
f 114/167/145 116/162/140 120/142/123
f 116/162/140 118/156/134 120/142/123
f 132/161/139 134/140/121 120/142/123
f 126/137/118 125/136/117 140/144/124
f 9/22/21 144/141/122 135/146/126
f 127/138/119 126/137/118 141/145/125
f 90/109/98 118/156/134 117/148/128
f 127/138/119 142/147/127 143/150/129
f 136/151/130 114/167/145 145/152/131
f 17/33/31 135/146/126 134/140/121
f 121/154/132 136/151/130 137/155/133
f 82/104/94 119/158/136 118/156/134
f 123/134/115 122/133/114 137/155/133
f 74/91/82 120/142/123 119/158/136
f 123/134/115 138/157/135 139/159/137
f 25/38/35 134/140/121 133/160/138
f 124/135/116 139/159/137 140/144/124
f 33/52/48 133/160/138 132/161/139
f 98/124/109 117/169/128 116/162/140
f 138/157/135 137/155/133 2/9/9
f 106/132/113 116/162/140 115/163/141
f 138/157/135 3/11/11 4/13/13
f 41/57/52 132/161/139 131/164/142
f 139/159/137 4/13/13 5/15/15
f 49/68/62 131/164/142 130/165/143
f 140/144/124 5/15/15 6/1/1
f 57/74/67 130/165/143 129/166/144
f 141/145/125 6/1/1 7/3/3
f 121/154/132 115/163/141 114/167/145
f 142/147/127 7/3/3 8/4/4
f 65/86/78 129/166/144 120/142/123
f 1/7/7 145/152/131 144/141/122
f 136/151/130 1/7/7 2/9/9
