# Blender v2.93.5 OBJ File: 'GIRONA1000.blend'
# www.blender.org
v -0.051611 -0.323220 -0.042000
v -0.051611 -0.323220 0.000093
v -0.051611 0.323220 -0.042000
v -0.051611 0.323220 0.000093
v 0.051611 -0.323220 -0.042000
v 0.051611 -0.323220 0.000093
v 0.051611 0.323220 -0.042000
v 0.051611 0.323220 0.000093
v -0.059836 0.000000 -0.042000
v -0.056456 -0.012614 -0.042000
v -0.059836 -0.000000 0.020000
v -0.034608 -0.025228 0.020000
v -0.056456 -0.012614 0.020000
v -0.047222 -0.021848 0.020000
v -0.056456 0.012614 -0.042000
v -0.034608 0.025228 0.020000
v -0.047222 0.021848 0.020000
v -0.056456 0.012614 0.020000
v 0.059836 -0.000000 -0.042000
v 0.056456 -0.012614 -0.042000
v 0.034608 -0.025228 0.020000
v 0.059836 0.000000 0.020000
v 0.047222 -0.021848 0.020000
v 0.056456 -0.012614 0.020000
v 0.056456 0.012614 -0.042000
v 0.034608 0.025228 0.020000
v 0.056456 0.012614 0.020000
v 0.047222 0.021848 0.020000
v -0.051611 0.017459 0.000093
v -0.051611 -0.017459 0.000093
v -0.051611 -0.017459 -0.042000
v -0.051611 0.017459 -0.042000
v 0.051611 -0.017459 0.000093
v 0.051611 0.017459 0.000093
v 0.051611 -0.017459 -0.042000
v 0.051611 0.017459 -0.042000
v -0.047222 -0.021848 0.000093
v -0.047222 0.021848 0.000093
v -0.034608 -0.025228 0.000093
v -0.034608 0.025228 0.000093
v 0.034608 -0.025228 0.000093
v 0.034608 0.025228 0.000093
v 0.047222 -0.021848 0.000093
v 0.047222 0.021848 0.000093
v -0.051611 0.040000 0.000093
v 0.051611 0.040000 0.000093
v -0.051611 0.040000 -0.042000
v 0.051611 0.040000 -0.042000
v -0.051611 0.252000 0.000093
v -0.051611 0.181000 0.000093
v -0.051611 0.110000 0.000093
v 0.051611 0.252000 0.000093
v 0.051611 0.181000 0.000093
v 0.051611 0.110000 0.000093
v -0.051611 0.252000 -0.042000
v -0.051611 0.181000 -0.042000
v -0.051611 0.110000 -0.042000
v 0.051611 0.252000 -0.042000
v 0.051611 0.181000 -0.042000
v 0.051611 0.110000 -0.042000
v -0.059836 -0.000000 0.113531
v -0.056456 -0.012614 0.113531
v -0.047222 -0.021848 0.113531
v -0.034608 0.025228 0.113531
v -0.047222 0.021848 0.113531
v -0.034608 -0.025228 0.113531
v 0.034608 -0.025228 0.113531
v 0.047222 -0.021848 0.113531
v 0.056456 -0.012614 0.113531
v 0.034608 0.025228 0.113531
v 0.056456 0.012614 0.113531
v 0.047222 0.021848 0.113531
v 0.059836 0.000000 0.113531
v -0.056456 0.012614 0.113531
v -0.059836 -0.000000 0.209342
v -0.056456 -0.012614 0.209342
v -0.047222 -0.021848 0.209342
v -0.034608 0.025228 0.209342
v -0.047222 0.021848 0.209342
v -0.034608 -0.025228 0.209342
v 0.034608 -0.025228 0.209342
v 0.047222 -0.021848 0.209342
v 0.056456 -0.012614 0.209342
v 0.034608 0.025228 0.209342
v 0.056456 0.012614 0.209342
v 0.047222 0.021848 0.209342
v 0.059836 0.000000 0.209342
v -0.056456 0.012614 0.209342
v -0.059836 -0.000000 0.307232
v -0.056456 -0.012614 0.307232
v -0.047222 -0.021848 0.307232
v -0.034608 0.025228 0.307232
v -0.047222 0.021848 0.307232
v -0.034608 -0.025228 0.307232
v 0.034608 -0.025228 0.307232
v 0.047222 -0.021848 0.307232
v 0.056456 -0.012614 0.307232
v 0.034608 0.025228 0.307232
v 0.056456 0.012614 0.307232
v 0.047222 0.021848 0.307232
v 0.059836 0.000000 0.307232
v -0.056456 0.012614 0.307232
v -0.059836 -0.000000 0.407000
v -0.056456 -0.012614 0.407000
v -0.047222 -0.021848 0.407000
v -0.034608 0.025228 0.407000
v -0.047222 0.021848 0.407000
v -0.034608 -0.025228 0.407000
v 0.034608 -0.025228 0.407000
v 0.047222 -0.021848 0.407000
v 0.056456 -0.012614 0.407000
v 0.034608 0.025228 0.407000
v 0.056456 0.012614 0.407000
v 0.047222 0.021848 0.407000
v 0.059836 0.000000 0.407000
v -0.056456 0.012614 0.407000
v -0.051611 -0.040000 0.000093
v 0.051611 -0.040000 0.000093
v -0.051611 -0.040000 -0.042000
v 0.051611 -0.040000 -0.042000
v -0.051611 -0.252000 0.000093
v -0.051611 -0.181000 0.000093
v -0.051611 -0.110000 0.000093
v 0.051611 -0.252000 0.000093
v 0.051611 -0.181000 0.000093
v 0.051611 -0.110000 0.000093
v -0.051611 -0.252000 -0.042000
v -0.051611 -0.181000 -0.042000
v -0.051611 -0.110000 -0.042000
v 0.051611 -0.252000 -0.042000
v 0.051611 -0.181000 -0.042000
v 0.051611 -0.110000 -0.042000
v -0.051611 -0.323220 -0.042000
v -0.051611 -0.323220 -0.042000
v -0.051611 -0.323220 0.000093
v -0.051611 -0.323220 0.000093
v -0.051611 0.323220 -0.042000
v -0.051611 0.323220 -0.042000
v -0.051611 0.323220 0.000093
v -0.051611 0.323220 0.000093
v 0.051611 -0.323220 -0.042000
v 0.051611 -0.323220 -0.042000
v 0.051611 -0.323220 0.000093
v 0.051611 -0.323220 0.000093
v 0.051611 0.323220 -0.042000
v 0.051611 0.323220 -0.042000
v 0.051611 0.323220 0.000093
v 0.051611 0.323220 0.000093
v 0.051611 -0.017459 0.000093
v 0.051611 -0.017459 0.000093
v 0.047222 -0.021848 0.000093
v -0.059836 0.000000 -0.042000
v -0.056456 -0.012614 -0.042000
v 0.059836 -0.000000 -0.042000
v 0.056456 -0.012614 -0.042000
v -0.051611 0.040000 0.000093
v -0.051611 0.017459 0.000093
v -0.051611 0.017459 0.000093
v -0.051611 -0.040000 0.000093
v -0.051611 -0.017459 0.000093
v -0.051611 -0.017459 0.000093
v -0.051611 -0.017459 -0.042000
v -0.051611 -0.017459 -0.042000
v 0.051611 -0.040000 0.000093
v 0.051611 0.040000 0.000093
v 0.051611 0.017459 0.000093
v 0.051611 0.017459 0.000093
v 0.051611 -0.017459 -0.042000
v 0.051611 -0.017459 -0.042000
v 0.051611 0.017459 -0.042000
v 0.051611 0.017459 -0.042000
v -0.047222 -0.021848 0.000093
v -0.047222 0.021848 0.000093
v -0.034608 -0.025228 0.000093
v -0.034608 0.025228 0.000093
v 0.034608 0.025228 0.000093
v 0.034608 -0.025228 0.000093
v 0.047222 0.021848 0.000093
v 0.056456 0.012614 -0.042000
v -0.051611 0.017459 -0.042000
v -0.051611 0.017459 -0.042000
v -0.056456 0.012614 -0.042000
v -0.051611 0.040000 -0.042000
v 0.051611 0.040000 -0.042000
v -0.051611 -0.040000 -0.042000
v 0.051611 -0.040000 -0.042000
v -0.051611 0.110000 0.000093
v 0.051611 0.110000 0.000093
v -0.051611 0.110000 -0.042000
v 0.051611 0.110000 -0.042000
v -0.051611 0.252000 0.000093
v -0.051611 0.181000 0.000093
v 0.051611 0.252000 0.000093
v 0.051611 0.181000 0.000093
v -0.051611 0.252000 -0.042000
v -0.051611 0.181000 -0.042000
v 0.051611 0.252000 -0.042000
v 0.051611 0.181000 -0.042000
v -0.059836 -0.000000 0.407000
v -0.056456 -0.012614 0.407000
v -0.047222 -0.021848 0.407000
v -0.034608 0.025228 0.407000
v -0.047222 0.021848 0.407000
v -0.034608 -0.025228 0.407000
v 0.034608 -0.025228 0.407000
v 0.047222 -0.021848 0.407000
v 0.056456 -0.012614 0.407000
v 0.034608 0.025228 0.407000
v 0.056456 0.012614 0.407000
v 0.047222 0.021848 0.407000
v 0.059836 0.000000 0.407000
v -0.056456 0.012614 0.407000
v -0.051611 -0.110000 0.000093
v 0.051611 -0.110000 0.000093
v -0.051611 -0.110000 -0.042000
v 0.051611 -0.110000 -0.042000
v -0.051611 -0.252000 0.000093
v -0.051611 -0.181000 0.000093
v 0.051611 -0.252000 0.000093
v 0.051611 -0.181000 0.000093
v -0.051611 -0.252000 -0.042000
v -0.051611 -0.181000 -0.042000
v 0.051611 -0.252000 -0.042000
v 0.051611 -0.181000 -0.042000
vt 0.636721 0.389854
vt 0.375000 0.118248
vt 0.375000 0.559124
vt 0.625000 0.250000
vt 0.375000 0.500000
vt 0.375000 0.250000
vt 0.375000 0.501985
vt 0.625000 0.500000
vt 0.596680 0.501985
vt 0.625000 0.750000
vt 0.375000 1.000000
vt 0.375000 0.750000
vt 0.375000 0.131752
vt 0.375000 0.631752
vt 0.375000 0.118248
vt 0.875000 0.750000
vt 0.625000 0.735219
vt 0.875000 0.735219
vt 0.625000 0.500000
vt 0.875000 0.514781
vt 0.625000 0.514781
vt 0.625000 0.802703
vt 0.398442 0.947297
vt 0.398442 0.802703
vt 0.625000 0.473649
vt 0.625000 0.562500
vt 0.625000 0.562500
vt 0.625000 0.302703
vt 0.398442 0.447297
vt 0.398442 0.302703
vt 0.625000 0.947297
vt 0.398442 0.973649
vt 0.398442 0.029708
vt 0.625000 0.000000
vt 0.625000 0.062500
vt 0.375000 0.125000
vt 0.375000 0.062500
vt 0.625000 0.276351
vt 0.398442 0.276351
vt 0.398442 0.234118
vt 0.375000 0.187500
vt 0.625000 0.125000
vt 0.625000 0.187500
vt 0.375000 0.625000
vt 0.625000 0.625000
vt 0.398442 0.515882
vt 0.625000 0.447297
vt 0.398442 0.473649
vt 0.625000 0.776351
vt 0.398442 0.776351
vt 0.398442 0.734118
vt 0.375000 0.687500
vt 0.625000 0.687500
vt 0.125000 0.625000
vt 0.142182 0.538494
vt 0.142182 0.711506
vt 0.375000 0.625000
vt 0.367939 0.687500
vt 0.357818 0.711506
vt 0.375000 0.618248
vt 0.375000 0.190876
vt 0.375000 0.559124
vt 0.375000 0.559124
vt 0.375000 0.690876
vt 0.375000 0.131752
vt 0.636721 0.367059
vt 0.375000 0.190876
vt 0.375000 0.631752
vt 0.511721 0.742059
vt 0.375000 0.690876
vt 0.696291 0.400294
vt 0.375000 0.205657
vt 0.375000 0.205657
vt 0.375000 0.544343
vt 0.625000 0.559124
vt 0.875000 0.559124
vt 0.666181 0.615243
vt 0.375000 0.515882
vt 0.511721 0.507941
vt 0.398442 0.515882
vt 0.375000 0.514781
vt 0.375000 0.250000
vt 0.375000 0.500000
vt 0.375000 0.529562
vt 0.375000 0.235219
vt 0.375000 0.220438
vt 0.375000 0.235219
vt 0.875000 0.500000
vt 0.375000 0.250000
vt 0.375000 0.220438
vt 0.815430 0.466765
vt 0.755860 0.433530
vt 0.625000 0.544343
vt 0.625000 0.529562
vt 0.875000 0.544343
vt 0.875000 0.529562
vt 0.375000 0.507941
vt 0.540041 0.505956
vt 0.375000 0.505956
vt 0.568360 0.503970
vt 0.375000 0.503970
vt 0.625000 0.125000
vt 0.625000 0.187500
vt 0.625000 0.187500
vt 0.625000 0.302703
vt 0.625000 0.625000
vt 0.625000 0.276351
vt 0.625000 0.947297
vt 0.625000 0.687500
vt 0.625000 0.473649
vt 0.625000 0.802703
vt 0.625000 0.776351
vt 0.625000 0.973649
vt 0.625000 0.973649
vt 0.625000 0.447297
vt 0.625000 0.062500
vt 0.625000 0.302703
vt 0.625000 0.447297
vt 0.625000 0.447297
vt 0.625000 0.776351
vt 0.625000 0.625000
vt 0.625000 0.562500
vt 0.625000 0.125000
vt 0.625000 0.687500
vt 0.625000 0.000000
vt 0.625000 0.062500
vt 0.625000 0.473649
vt 0.625000 0.973649
vt 0.625000 0.947297
vt 0.625000 0.276351
vt 0.625000 0.802703
vt 0.625000 0.625000
vt 0.625000 0.687500
vt 0.625000 0.687500
vt 0.625000 0.562500
vt 0.625000 0.125000
vt 0.625000 0.000000
vt 0.625000 0.062500
vt 0.625000 0.473649
vt 0.625000 0.302703
vt 0.625000 0.973649
vt 0.625000 0.947297
vt 0.625000 0.276351
vt 0.625000 0.802703
vt 0.625000 0.187500
vt 0.625000 0.776351
vt 0.867939 0.562500
vt 0.867939 0.687500
vt 0.822297 0.750000
vt 0.625000 0.000000
vt 0.625000 0.062500
vt 0.625000 0.473649
vt 0.625000 0.302703
vt 0.625000 0.973649
vt 0.625000 0.802703
vt 0.625000 0.947297
vt 0.625000 0.187500
vt 0.625000 0.276351
vt 0.625000 0.125000
vt 0.625000 0.776351
vt 0.625000 0.625000
vt 0.625000 0.447297
vt 0.625000 0.562500
vt 0.540041 0.744044
vt 0.375000 0.705657
vt 0.375000 0.669343
vt 0.375000 0.705657
vt 0.875000 0.690876
vt 0.625000 0.690876
vt 0.833819 0.634757
vt 0.696291 0.479890
vt 0.375000 0.669343
vt 0.875000 0.750000
vt 0.375000 0.889781
vt 0.375000 1.000000
vt 0.815430 0.659963
vt 0.375000 0.779562
vt 0.755860 0.569927
vt 0.375000 1.000000
vt 0.375000 0.735219
vt 0.375000 0.750000
vt 0.375000 0.889781
vt 0.375000 0.720438
vt 0.375000 0.779562
vt 0.375000 0.735219
vt 0.625000 0.750000
vt 0.375000 0.750000
vt 0.375000 0.720438
vt 0.596680 0.748015
vt 0.568360 0.746030
vt 0.875000 0.705657
vt 0.875000 0.720438
vt 0.625000 0.705657
vt 0.625000 0.720438
vt 0.398442 0.029708
vt 0.625000 0.500000
vt 0.375000 0.500000
vt 0.625000 1.000000
vt 0.625000 0.750000
vt 0.875000 0.500000
vt 0.398442 0.000000
vt 0.375000 0.029708
vt 0.375000 0.234118
vt 0.375000 0.562500
vt 0.375000 0.515882
vt 0.375000 0.734118
vt 0.132061 0.687500
vt 0.132061 0.562500
vt 0.357818 0.538494
vt 0.367939 0.562500
vt 0.398442 0.234118
vt 0.398442 0.734118
vt 0.635631 0.616551
vt 0.625000 0.618248
vt 0.875000 0.618248
vt 0.864370 0.616551
vt 0.833819 0.615243
vt 0.875000 0.625000
vt 0.848649 0.733253
vt 0.677703 0.750000
vt 0.677703 0.500000
vt 0.651352 0.733253
vt 0.632061 0.687500
vt 0.625000 0.625000
vt 0.632061 0.562500
vt 0.651352 0.516747
vt 0.822297 0.500000
vt 0.848649 0.516747
vt 0.625000 0.000000
vt 0.864370 0.633449
vt 0.875000 0.631752
vt 0.625000 0.631752
vt 0.635631 0.633449
vt 0.666181 0.634757
vn -1.0000 0.0000 0.0000
vn 0.0000 1.0000 0.0000
vn 1.0000 0.0000 0.0000
vn 0.0000 -1.0000 0.0000
vn 0.0000 0.0000 -1.0000
vn 0.0000 0.0000 1.0000
vn 0.1305 -0.9914 0.0000
vn -0.1305 -0.9914 0.0000
vn 0.5000 0.8660 0.0000
vn 0.8660 0.5000 0.0000
vn -0.1305 0.9914 0.0000
vn 0.1305 0.9914 0.0000
vn -0.5000 -0.8660 0.0000
vn -0.7071 -0.7071 0.0000
vn -0.8660 -0.5000 0.0000
vn -0.5000 0.8660 0.0000
vn -0.7071 0.7071 0.0000
vn -0.8660 0.5000 0.0000
vn 0.7071 0.7071 0.0000
vn 0.5000 -0.8660 0.0000
vn 0.7071 -0.7071 0.0000
vn 0.8660 -0.5000 0.0000
s 1
f 159/1/1 162/2/1 185/3/1
f 139/4/2 145/5/2 137/6/2
f 197/7/3 148/8/3 193/9/3
f 143/10/4 133/11/4 141/12/4
s off
f 180/13/5 169/14/5 163/15/5
s 1
f 136/16/6 219/17/6 217/18/6
f 8/19/6 191/20/6 52/21/6
f 21/22/7 174/23/8 177/24/7
f 28/25/9 71/26/10 27/27/10
f 16/28/11 176/29/12 175/30/11
f 12/31/8 172/32/13 174/23/8
f 161/33/14 14/34/13 13/35/15
f 13/35/15 152/36/1 153/37/15
f 17/38/16 175/30/11 173/39/16
f 17/38/16 173/39/16 158/40/17
f 182/41/18 11/42/1 18/43/18
f 154/44/3 27/27/10 22/45/3
f 167/46/19 28/25/9 27/27/10
f 26/47/12 178/48/9 176/29/12
f 23/49/20 177/24/7 151/50/20
f 149/51/21 155/52/22 24/53/22
f 155/52/22 22/45/3 24/53/22
f 9/54/5 180/55/5 163/56/5
f 19/57/5 20/58/5 169/59/5
f 171/60/5 183/61/5 184/62/5
f 119/63/5 169/14/5 186/64/5
f 32/65/1 156/66/1 47/67/1
f 35/68/3 164/69/3 120/70/3
f 47/67/1 187/71/1 189/72/1
f 184/62/5 57/73/5 190/74/5
f 165/75/6 45/76/6 42/77/6
f 36/78/3 46/79/3 34/80/3
f 58/81/5 138/82/5 7/83/5
f 198/84/5 195/85/5 58/81/5
f 190/74/5 196/86/5 198/84/5
f 55/87/1 4/88/1 3/89/1
f 56/90/1 49/91/1 55/87/1
f 189/72/1 192/92/1 56/90/1
f 188/93/6 45/76/6 165/75/6
f 194/94/6 51/95/6 188/93/6
f 52/21/6 50/96/6 194/94/6
f 48/97/3 54/98/3 46/79/3
f 60/99/3 53/100/3 54/98/3
f 59/101/3 193/9/3 53/100/3
f 61/102/1 88/103/18 74/104/18
f 17/38/16 64/105/11 16/28/11
f 27/27/10 73/106/3 22/45/3
f 18/43/18 65/107/16 17/38/16
f 21/22/7 66/108/8 12/31/8
f 22/45/3 69/109/22 24/53/22
f 26/47/12 72/110/9 28/25/9
f 23/49/20 67/111/7 21/22/7
f 24/53/22 68/112/20 23/49/20
f 13/35/15 61/102/1 11/42/1
f 12/31/8 63/113/13 14/114/13
f 11/42/1 74/104/18 18/43/18
f 16/28/11 70/115/12 26/47/12
f 14/34/13 62/116/15 13/35/15
f 78/117/11 98/118/12 84/119/12
f 69/109/22 82/120/20 68/112/20
f 71/26/10 87/121/3 73/106/3
f 70/115/12 78/117/11 84/119/12
f 72/110/9 85/122/10 71/26/10
f 62/116/15 75/123/1 61/102/1
f 73/106/3 83/124/22 69/109/22
f 63/125/13 76/126/15 62/116/15
f 70/115/12 86/127/9 72/110/9
f 65/107/16 78/117/11 64/105/11
f 66/108/8 77/128/13 63/113/13
f 67/111/7 80/129/8 66/108/8
f 74/104/18 79/130/16 65/107/16
f 68/112/20 81/131/7 67/111/7
f 101/132/3 111/133/22 97/134/22
f 86/127/9 99/135/10 85/122/10
f 76/126/15 89/136/1 75/123/1
f 87/121/3 97/134/22 83/124/22
f 77/137/13 90/138/15 76/126/15
f 84/119/12 100/139/9 86/127/9
f 79/130/16 92/140/11 78/117/11
f 80/129/8 91/141/13 77/128/13
f 81/131/7 94/142/8 80/129/8
f 88/103/18 93/143/16 79/130/16
f 82/120/20 95/144/7 81/131/7
f 88/103/18 89/136/1 102/145/18
f 83/124/22 96/146/20 82/120/20
f 85/122/10 101/132/3 87/121/3
f 212/147/6 200/148/6 204/149/6
f 91/150/13 104/151/15 90/138/15
f 98/118/12 114/152/9 100/139/9
f 93/143/16 106/153/11 92/140/11
f 94/142/8 105/154/13 91/141/13
f 94/142/8 109/155/7 108/156/8
f 93/143/16 116/157/18 107/158/16
f 96/146/20 109/155/7 95/144/7
f 102/145/18 103/159/1 116/157/18
f 97/134/22 110/160/20 96/146/20
f 99/135/10 211/161/3 101/132/3
f 92/140/11 112/162/12 98/118/12
f 99/135/10 114/152/9 113/163/10
f 90/138/15 103/159/1 89/136/1
f 120/70/3 214/164/3 216/165/3
f 215/166/5 186/64/5 132/167/5
f 117/168/6 118/169/6 39/170/6
f 213/171/1 185/3/1 129/172/1
f 2/173/1 221/174/1 134/175/1
f 121/176/1 222/177/1 221/174/1
f 218/178/1 129/172/1 222/177/1
f 1/179/5 223/180/5 142/181/5
f 127/182/5 224/183/5 223/180/5
f 128/184/5 132/167/5 224/183/5
f 130/185/3 6/186/3 5/187/3
f 131/188/3 124/189/3 130/185/3
f 216/165/3 220/190/3 131/188/3
f 123/191/6 118/169/6 117/168/6
f 122/192/6 126/193/6 123/191/6
f 217/18/6 125/194/6 122/192/6
f 159/1/1 160/195/1 162/2/1
f 139/4/2 147/196/2 145/5/2
f 197/7/3 146/197/3 148/8/3
f 143/10/4 135/198/4 133/11/4
s off
f 180/13/5 171/60/5 169/14/5
s 1
f 136/16/6 144/199/6 219/17/6
f 8/19/6 140/200/6 191/20/6
f 21/22/7 12/31/8 174/23/8
f 28/25/9 72/110/9 71/26/10
f 16/28/11 26/47/12 176/29/12
f 12/31/8 14/114/13 172/32/13
f 161/33/14 172/201/13 14/34/13
f 13/35/15 153/37/15 161/33/14
f 153/37/15 31/202/14 161/33/14
f 13/35/15 11/42/1 152/36/1
f 17/38/16 16/28/11 175/30/11
f 181/203/17 182/41/18 158/40/17
f 182/41/18 18/43/18 158/40/17
f 18/43/18 17/38/16 158/40/17
f 182/41/18 152/36/1 11/42/1
f 154/44/3 179/204/10 27/27/10
f 167/46/19 178/48/9 28/25/9
f 27/27/10 179/204/10 167/46/19
f 179/204/10 170/205/19 167/46/19
f 26/47/12 28/25/9 178/48/9
f 23/49/20 21/22/7 177/24/7
f 149/51/21 168/206/21 155/52/22
f 24/53/22 23/49/20 149/51/21
f 23/49/20 151/50/20 149/51/21
f 155/52/22 154/44/3 22/45/3
f 163/56/5 10/207/5 9/54/5
f 9/54/5 15/208/5 180/55/5
f 169/59/5 171/209/5 19/57/5
f 171/209/5 25/210/5 19/57/5
f 171/60/5 180/13/5 183/61/5
f 119/63/5 163/15/5 169/14/5
f 32/65/1 157/211/1 156/66/1
f 35/68/3 150/212/3 164/69/3
f 47/67/1 156/66/1 187/71/1
f 184/62/5 183/61/5 57/73/5
f 44/213/6 166/214/6 165/75/6
f 45/76/6 29/215/6 38/216/6
f 45/76/6 38/216/6 40/217/6
f 42/77/6 44/213/6 165/75/6
f 45/76/6 40/217/6 42/77/6
f 36/78/3 48/97/3 46/79/3
f 58/81/5 195/85/5 138/82/5
f 198/84/5 196/86/5 195/85/5
f 190/74/5 57/73/5 196/86/5
f 55/87/1 49/91/1 4/88/1
f 56/90/1 192/92/1 49/91/1
f 189/72/1 187/71/1 192/92/1
f 188/93/6 51/95/6 45/76/6
f 194/94/6 50/96/6 51/95/6
f 52/21/6 191/20/6 50/96/6
f 48/97/3 60/99/3 54/98/3
f 60/99/3 59/101/3 53/100/3
f 59/101/3 197/7/3 193/9/3
f 61/102/1 75/123/1 88/103/18
f 17/38/16 65/107/16 64/105/11
f 27/27/10 71/26/10 73/106/3
f 18/43/18 74/104/18 65/107/16
f 21/22/7 67/111/7 66/108/8
f 22/45/3 73/106/3 69/109/22
f 26/47/12 70/115/12 72/110/9
f 23/49/20 68/112/20 67/111/7
f 24/53/22 69/109/22 68/112/20
f 13/35/15 62/116/15 61/102/1
f 12/31/8 66/108/8 63/113/13
f 11/42/1 61/102/1 74/104/18
f 16/28/11 64/105/11 70/115/12
f 14/34/13 63/125/13 62/116/15
f 78/117/11 92/140/11 98/118/12
f 69/109/22 83/124/22 82/120/20
f 71/26/10 85/122/10 87/121/3
f 70/115/12 64/105/11 78/117/11
f 72/110/9 86/127/9 85/122/10
f 62/116/15 76/126/15 75/123/1
f 73/106/3 87/121/3 83/124/22
f 63/125/13 77/137/13 76/126/15
f 70/115/12 84/119/12 86/127/9
f 65/107/16 79/130/16 78/117/11
f 66/108/8 80/129/8 77/128/13
f 67/111/7 81/131/7 80/129/8
f 74/104/18 88/103/18 79/130/16
f 68/112/20 82/120/20 81/131/7
f 101/132/3 211/161/3 111/133/22
f 86/127/9 100/139/9 99/135/10
f 76/126/15 90/138/15 89/136/1
f 87/121/3 101/132/3 97/134/22
f 77/137/13 91/150/13 90/138/15
f 84/119/12 98/118/12 100/139/9
f 79/130/16 93/143/16 92/140/11
f 80/129/8 94/142/8 91/141/13
f 81/131/7 95/144/7 94/142/8
f 88/103/18 102/145/18 93/143/16
f 82/120/20 96/146/20 95/144/7
f 88/103/18 75/123/1 89/136/1
f 83/124/22 97/134/22 96/146/20
f 85/122/10 99/135/10 101/132/3
f 212/147/6 199/218/6 200/148/6
f 200/148/6 201/219/6 204/149/6
f 204/149/6 205/220/6 208/221/6
f 205/220/6 206/222/6 208/221/6
f 206/222/6 207/223/6 115/224/6
f 115/224/6 209/225/6 210/226/6
f 210/226/6 208/221/6 115/224/6
f 208/221/6 202/227/6 204/149/6
f 115/224/6 208/221/6 206/222/6
f 202/227/6 203/228/6 204/149/6
f 203/228/6 212/147/6 204/149/6
f 91/150/13 105/229/13 104/151/15
f 98/118/12 112/162/12 114/152/9
f 93/143/16 107/158/16 106/153/11
f 94/142/8 108/156/8 105/154/13
f 94/142/8 95/144/7 109/155/7
f 93/143/16 102/145/18 116/157/18
f 96/146/20 110/160/20 109/155/7
f 102/145/18 89/136/1 103/159/1
f 97/134/22 111/133/22 110/160/20
f 99/135/10 113/163/10 211/161/3
f 92/140/11 106/153/11 112/162/12
f 99/135/10 100/139/9 114/152/9
f 90/138/15 104/151/15 103/159/1
f 120/70/3 164/69/3 214/164/3
f 215/166/5 119/63/5 186/64/5
f 37/230/6 30/231/6 117/168/6
f 118/169/6 33/232/6 43/233/6
f 118/169/6 43/233/6 41/234/6
f 39/170/6 37/230/6 117/168/6
f 118/169/6 41/234/6 39/170/6
f 213/171/1 159/1/1 185/3/1
f 2/173/1 121/176/1 221/174/1
f 121/176/1 218/178/1 222/177/1
f 218/178/1 213/171/1 129/172/1
f 1/179/5 127/182/5 223/180/5
f 127/182/5 128/184/5 224/183/5
f 128/184/5 215/166/5 132/167/5
f 130/185/3 124/189/3 6/186/3
f 131/188/3 220/190/3 124/189/3
f 216/165/3 214/164/3 220/190/3
f 123/191/6 126/193/6 118/169/6
f 122/192/6 125/194/6 126/193/6
f 217/18/6 219/17/6 125/194/6
